<svg width="973" height="788" viewBox="0 0 973 788" fill="none" xmlns="http://www.w3.org/2000/svg">
<rect width="6.32985" height="784.901" fill="#FCB03F"/>
<path d="M122.849 77.9191V207.69H96.1992V77.9191H122.849ZM162.778 77.9191V98.8643H56.8935V77.9191H162.778ZM201.46 70.7888V207.69H175.791V70.7888H201.46ZM197.806 156.085H190.765C190.824 149.37 191.715 143.191 193.438 137.546C195.162 131.842 197.627 126.91 200.836 122.751C204.045 118.532 207.877 115.264 212.334 112.947C216.85 110.629 221.841 109.471 227.307 109.471C232.061 109.471 236.369 110.154 240.231 111.521C244.153 112.828 247.51 114.967 250.302 117.938C253.155 120.849 255.353 124.682 256.898 129.435C258.443 134.189 259.215 139.953 259.215 146.726V207.69H233.368V146.548C233.368 142.27 232.744 138.913 231.496 136.476C230.308 133.981 228.555 132.228 226.238 131.218C223.98 130.148 221.187 129.614 217.86 129.614C214.176 129.614 211.026 130.297 208.412 131.664C205.857 133.03 203.807 134.932 202.262 137.368C200.717 139.745 199.588 142.537 198.875 145.746C198.162 148.954 197.806 152.401 197.806 156.085ZM323.12 209.473C315.634 209.473 308.919 208.284 302.977 205.908C297.035 203.471 291.985 200.114 287.826 195.836C283.726 191.558 280.576 186.596 278.378 180.952C276.179 175.247 275.08 169.187 275.08 162.769V159.204C275.08 151.896 276.12 145.211 278.2 139.15C280.279 133.09 283.25 127.831 287.112 123.375C291.034 118.918 295.788 115.502 301.373 113.125C306.958 110.689 313.257 109.471 320.268 109.471C327.101 109.471 333.162 110.6 338.451 112.857C343.739 115.115 348.166 118.324 351.731 122.483C355.355 126.643 358.089 131.634 359.93 137.457C361.772 143.221 362.693 149.638 362.693 156.709V167.404H286.043V150.291H337.47V148.331C337.47 144.765 336.816 141.587 335.509 138.794C334.261 135.942 332.36 133.684 329.805 132.02C327.25 130.356 323.982 129.524 320.001 129.524C316.614 129.524 313.702 130.267 311.266 131.753C308.83 133.238 306.84 135.318 305.295 137.992C303.809 140.666 302.68 143.815 301.908 147.439C301.195 151.004 300.838 154.926 300.838 159.204V162.769C300.838 166.632 301.373 170.197 302.443 173.465C303.572 176.733 305.146 179.555 307.166 181.932C309.246 184.309 311.742 186.151 314.653 187.458C317.624 188.765 320.981 189.419 324.725 189.419C329.359 189.419 333.667 188.528 337.648 186.745C341.689 184.903 345.165 182.14 348.076 178.456L360.554 192.004C358.534 194.915 355.771 197.708 352.265 200.382C348.819 203.056 344.66 205.254 339.787 206.977C334.915 208.641 329.359 209.473 323.12 209.473Z" fill="#FCB03F"/>
<path d="M91.5645 333.468V463.24H64.826V333.468H91.5645ZM143.259 388.906V409.762H84.256V388.906H143.259ZM149.498 333.468V354.414H84.256V333.468H149.498ZM186.754 387.837V463.24H161.085V366.802H185.239L186.754 387.837ZM215.81 366.179L215.364 389.976C214.116 389.798 212.601 389.649 210.818 389.53C209.095 389.352 207.521 389.263 206.095 389.263C202.47 389.263 199.321 389.738 196.647 390.689C194.033 391.58 191.834 392.917 190.052 394.7C188.328 396.482 187.021 398.651 186.13 401.206C185.298 403.761 184.823 406.673 184.704 409.941L179.534 408.336C179.534 402.097 180.158 396.363 181.406 391.135C182.654 385.846 184.466 381.241 186.843 377.32C189.279 373.398 192.25 370.368 195.756 368.228C199.261 366.089 203.272 365.02 207.788 365.02C209.214 365.02 210.67 365.139 212.155 365.376C213.641 365.555 214.859 365.822 215.81 366.179ZM276.952 441.492V398.532C276.952 395.442 276.447 392.798 275.437 390.6C274.427 388.342 272.852 386.589 270.713 385.341C268.633 384.093 265.93 383.469 262.602 383.469C259.75 383.469 257.284 383.975 255.204 384.985C253.125 385.935 251.521 387.332 250.392 389.174C249.263 390.956 248.698 393.066 248.698 395.502H223.029C223.029 391.402 223.98 387.51 225.881 383.826C227.783 380.142 230.546 376.904 234.17 374.111C237.795 371.259 242.103 369.031 247.094 367.426C252.144 365.822 257.789 365.02 264.028 365.02C271.515 365.02 278.17 366.268 283.993 368.763C289.816 371.259 294.391 375.002 297.719 379.993C301.106 384.985 302.799 391.224 302.799 398.71V439.977C302.799 445.265 303.126 449.603 303.78 452.99C304.433 456.317 305.384 459.229 306.632 461.724V463.24H280.695C279.447 460.625 278.497 457.357 277.843 453.435C277.249 449.454 276.952 445.473 276.952 441.492ZM280.339 404.504L280.517 419.032H266.167C262.78 419.032 259.839 419.418 257.344 420.19C254.848 420.963 252.798 422.062 251.194 423.488C249.589 424.855 248.401 426.459 247.629 428.301C246.916 430.143 246.559 432.163 246.559 434.362C246.559 436.56 247.064 438.551 248.074 440.333C249.084 442.057 250.54 443.423 252.442 444.433C254.343 445.384 256.571 445.859 259.126 445.859C262.988 445.859 266.346 445.087 269.198 443.542C272.05 441.997 274.248 440.096 275.793 437.838C277.397 435.58 278.229 433.441 278.289 431.421L285.063 442.294C284.112 444.73 282.805 447.256 281.141 449.87C279.537 452.485 277.487 454.951 274.991 457.268C272.495 459.526 269.495 461.398 265.989 462.883C262.483 464.309 258.324 465.022 253.511 465.022C247.391 465.022 241.835 463.804 236.844 461.368C231.912 458.872 227.991 455.456 225.079 451.118C222.227 446.721 220.801 441.73 220.801 436.144C220.801 431.094 221.752 426.608 223.653 422.686C225.554 418.764 228.347 415.467 232.031 412.793C235.774 410.059 240.439 408.01 246.024 406.643C251.61 405.217 258.086 404.504 265.454 404.504H280.339ZM348.255 386.767V463.24H322.497V366.802H346.65L348.255 386.767ZM344.69 411.634H337.559C337.559 404.92 338.361 398.74 339.966 393.095C341.629 387.391 344.036 382.459 347.185 378.3C350.394 374.081 354.345 370.813 359.039 368.496C363.733 366.179 369.17 365.02 375.35 365.02C379.628 365.02 383.55 365.673 387.115 366.981C390.68 368.228 393.74 370.219 396.295 372.952C398.909 375.626 400.93 379.132 402.356 383.469C403.782 387.748 404.495 392.887 404.495 398.889V463.24H378.826V401.741C378.826 397.344 378.232 393.957 377.043 391.58C375.855 389.203 374.161 387.54 371.963 386.589C369.824 385.638 367.239 385.163 364.209 385.163C360.881 385.163 357.97 385.846 355.474 387.213C353.038 388.58 351.018 390.481 349.413 392.917C347.809 395.294 346.621 398.087 345.848 401.295C345.076 404.504 344.69 407.95 344.69 411.634ZM402.088 408.693L392.908 409.852C392.908 403.553 393.681 397.7 395.225 392.293C396.83 386.886 399.177 382.133 402.267 378.033C405.416 373.933 409.308 370.754 413.942 368.496C418.577 366.179 423.925 365.02 429.986 365.02C434.62 365.02 438.839 365.703 442.642 367.07C446.445 368.377 449.683 370.486 452.357 373.398C455.09 376.25 457.17 379.993 458.596 384.628C460.081 389.263 460.824 394.937 460.824 401.652V463.24H435.066V401.652C435.066 397.195 434.472 393.808 433.283 391.491C432.154 389.114 430.491 387.48 428.292 386.589C426.153 385.638 423.598 385.163 420.627 385.163C417.537 385.163 414.834 385.787 412.516 387.035C410.199 388.223 408.268 389.887 406.723 392.026C405.178 394.165 404.019 396.66 403.247 399.513C402.475 402.305 402.088 405.365 402.088 408.693ZM525.086 465.022C517.599 465.022 510.885 463.834 504.943 461.457C499.001 459.021 493.95 455.664 489.791 451.385C485.691 447.107 482.542 442.146 480.343 436.501C478.145 430.797 477.045 424.736 477.045 418.319V414.754C477.045 407.445 478.085 400.76 480.165 394.7C482.245 388.639 485.215 383.38 489.078 378.924C492.999 374.467 497.753 371.051 503.338 368.674C508.924 366.238 515.222 365.02 522.234 365.02C529.067 365.02 535.127 366.149 540.416 368.407C545.704 370.665 550.131 373.873 553.696 378.033C557.32 382.192 560.054 387.183 561.896 393.006C563.738 398.77 564.659 405.187 564.659 412.258V422.953H488.008V405.841H539.435V403.88C539.435 400.315 538.782 397.136 537.475 394.343C536.227 391.491 534.325 389.233 531.77 387.569C529.215 385.906 525.947 385.074 521.966 385.074C518.579 385.074 515.668 385.817 513.232 387.302C510.795 388.787 508.805 390.867 507.26 393.541C505.774 396.215 504.646 399.364 503.873 402.989C503.16 406.554 502.804 410.475 502.804 414.754V418.319C502.804 422.181 503.338 425.746 504.408 429.014C505.537 432.282 507.111 435.105 509.132 437.481C511.211 439.858 513.707 441.7 516.618 443.007C519.589 444.315 522.947 444.968 526.69 444.968C531.325 444.968 535.633 444.077 539.614 442.294C543.654 440.452 547.13 437.689 550.042 434.005L562.52 447.553C560.499 450.464 557.736 453.257 554.231 455.931C550.784 458.605 546.625 460.803 541.753 462.526C536.88 464.19 531.325 465.022 525.086 465.022ZM606.817 438.284L626.87 366.802H643.181L637.922 394.878L617.868 463.24H604.232L606.817 438.284ZM596.656 366.802L611.006 438.194L612.342 463.24H596.299L571.878 366.802H596.656ZM661.541 437.036L675.535 366.802H700.401L675.98 463.24H660.026L661.541 437.036ZM645.409 366.802L665.374 437.749L668.137 463.24H654.411L634.357 394.967L629.277 366.802H645.409ZM709.225 416.001V414.13C709.225 407.059 710.235 400.552 712.256 394.611C714.276 388.609 717.217 383.41 721.079 379.013C724.942 374.616 729.695 371.199 735.34 368.763C740.985 366.268 747.461 365.02 754.77 365.02C762.078 365.02 768.585 366.268 774.289 368.763C779.993 371.199 784.776 374.616 788.639 379.013C792.56 383.41 795.531 388.609 797.552 394.611C799.572 400.552 800.582 407.059 800.582 414.13V416.001C800.582 423.013 799.572 429.519 797.552 435.521C795.531 441.462 792.56 446.662 788.639 451.118C784.776 455.515 780.023 458.932 774.378 461.368C768.733 463.804 762.257 465.022 754.948 465.022C747.64 465.022 741.133 463.804 735.429 461.368C729.784 458.932 725.001 455.515 721.079 451.118C717.217 446.662 714.276 441.462 712.256 435.521C710.235 429.519 709.225 423.013 709.225 416.001ZM734.894 414.13V416.001C734.894 420.042 735.251 423.815 735.964 427.321C736.677 430.826 737.806 433.916 739.351 436.59C740.955 439.205 743.035 441.254 745.59 442.74C748.145 444.225 751.264 444.968 754.948 444.968C758.513 444.968 761.573 444.225 764.128 442.74C766.683 441.254 768.733 439.205 770.278 436.59C771.823 433.916 772.952 430.826 773.665 427.321C774.438 423.815 774.824 420.042 774.824 416.001V414.13C774.824 410.208 774.438 406.524 773.665 403.078C772.952 399.572 771.793 396.482 770.189 393.808C768.644 391.075 766.594 388.936 764.039 387.391C761.484 385.846 758.394 385.074 754.77 385.074C751.145 385.074 748.056 385.846 745.501 387.391C743.005 388.936 740.955 391.075 739.351 393.808C737.806 396.482 736.677 399.572 735.964 403.078C735.251 406.524 734.894 410.208 734.894 414.13ZM842.027 387.837V463.24H816.358V366.802H840.512L842.027 387.837ZM871.083 366.179L870.637 389.976C869.389 389.798 867.874 389.649 866.091 389.53C864.368 389.352 862.794 389.263 861.368 389.263C857.743 389.263 854.594 389.738 851.92 390.689C849.306 391.58 847.107 392.917 845.324 394.7C843.601 396.482 842.294 398.651 841.403 401.206C840.571 403.761 840.096 406.673 839.977 409.941L834.807 408.336C834.807 402.097 835.431 396.363 836.679 391.135C837.927 385.846 839.739 381.241 842.116 377.32C844.552 373.398 847.523 370.368 851.029 368.228C854.534 366.089 858.545 365.02 863.061 365.02C864.487 365.02 865.943 365.139 867.428 365.376C868.914 365.555 870.132 365.822 871.083 366.179ZM908.873 326.249V463.24H883.204V326.249H908.873ZM969.659 366.802L927.768 414.575L905.308 437.303L895.949 418.764L913.775 396.126L938.82 366.802H969.659ZM943.009 463.24L914.488 418.675L932.225 403.167L972.6 463.24H943.009Z" fill="#FCB03F"/>
<path d="M167.68 650.962V702.389C165.66 704.825 162.541 707.469 158.322 710.322C154.103 713.114 148.666 715.521 142.011 717.541C135.356 719.561 127.305 720.571 117.857 720.571C109.479 720.571 101.844 719.205 94.9514 716.471C88.0588 713.679 82.1169 709.609 77.1257 704.261C72.1939 698.913 68.3911 692.377 65.7173 684.653C63.0434 676.869 61.7065 667.985 61.7065 658.003V649.892C61.7065 639.91 62.984 631.027 65.539 623.243C68.1534 615.459 71.8671 608.893 76.6801 603.546C81.493 598.198 87.2269 594.128 93.8819 591.335C100.537 588.542 107.934 587.146 116.075 587.146C127.364 587.146 136.634 588.988 143.883 592.672C151.132 596.296 156.658 601.347 160.461 607.824C164.323 614.241 166.7 621.609 167.591 629.928H141.655C141.001 625.531 139.753 621.698 137.911 618.43C136.069 615.162 133.425 612.607 129.979 610.765C126.592 608.923 122.195 608.002 116.788 608.002C112.331 608.002 108.35 608.923 104.845 610.765C101.398 612.548 98.4868 615.192 96.1101 618.697C93.7333 622.203 91.921 626.541 90.6732 631.71C89.4254 636.88 88.8015 642.881 88.8015 649.714V658.003C88.8015 664.777 89.4551 670.778 90.7624 676.007C92.0696 681.177 94.0007 685.544 96.5557 689.109C99.1702 692.615 102.379 695.259 106.182 697.041C109.984 698.824 114.411 699.715 119.462 699.715C123.681 699.715 127.186 699.359 129.979 698.646C132.831 697.933 135.119 697.071 136.842 696.061C138.624 694.991 139.991 693.981 140.942 693.031V670.035H116.521V650.962H167.68ZM213.314 643.386V718.789H187.645V622.352H211.799L213.314 643.386ZM242.37 621.728L241.924 645.525C240.677 645.347 239.161 645.198 237.379 645.079C235.656 644.901 234.081 644.812 232.655 644.812C229.03 644.812 225.881 645.287 223.207 646.238C220.593 647.129 218.394 648.466 216.612 650.249C214.889 652.031 213.581 654.2 212.69 656.755C211.858 659.31 211.383 662.222 211.264 665.49L206.095 663.886C206.095 657.647 206.719 651.913 207.966 646.684C209.214 641.395 211.026 636.791 213.403 632.869C215.839 628.947 218.81 625.917 222.316 623.778C225.822 621.639 229.833 620.569 234.348 620.569C235.774 620.569 237.23 620.688 238.716 620.926C240.201 621.104 241.419 621.371 242.37 621.728ZM247.718 671.551V669.679C247.718 662.608 248.728 656.102 250.748 650.16C252.768 644.158 255.71 638.959 259.572 634.562C263.434 630.165 268.188 626.749 273.832 624.313C279.477 621.817 285.954 620.569 293.262 620.569C300.571 620.569 307.077 621.817 312.782 624.313C318.486 626.749 323.269 630.165 327.131 634.562C331.053 638.959 334.024 644.158 336.044 650.16C338.064 656.102 339.074 662.608 339.074 669.679V671.551C339.074 678.562 338.064 685.068 336.044 691.07C334.024 697.012 331.053 702.211 327.131 706.667C323.269 711.064 318.515 714.481 312.871 716.917C307.226 719.353 300.749 720.571 293.441 720.571C286.132 720.571 279.626 719.353 273.921 716.917C268.277 714.481 263.493 711.064 259.572 706.667C255.71 702.211 252.768 697.012 250.748 691.07C248.728 685.068 247.718 678.562 247.718 671.551ZM273.387 669.679V671.551C273.387 675.591 273.743 679.364 274.456 682.87C275.169 686.376 276.298 689.465 277.843 692.139C279.447 694.754 281.527 696.804 284.082 698.289C286.637 699.775 289.757 700.517 293.441 700.517C297.006 700.517 300.066 699.775 302.621 698.289C305.176 696.804 307.226 694.754 308.771 692.139C310.316 689.465 311.445 686.376 312.158 682.87C312.93 679.364 313.316 675.591 313.316 671.551V669.679C313.316 665.757 312.93 662.073 312.158 658.627C311.445 655.121 310.286 652.031 308.682 649.358C307.137 646.624 305.087 644.485 302.532 642.94C299.977 641.395 296.887 640.623 293.262 640.623C289.638 640.623 286.548 641.395 283.993 642.94C281.497 644.485 279.447 646.624 277.843 649.358C276.298 652.031 275.169 655.121 274.456 658.627C273.743 662.073 273.387 665.757 273.387 669.679ZM411.892 695.704V622.352H437.561V718.789H413.408L411.892 695.704ZM414.745 675.918L422.32 675.74C422.32 682.157 421.578 688.129 420.092 693.655C418.607 699.121 416.379 703.875 413.408 707.915C410.437 711.896 406.693 715.016 402.177 717.274C397.662 719.472 392.344 720.571 386.223 720.571C381.529 720.571 377.192 719.918 373.211 718.611C369.289 717.244 365.902 715.134 363.05 712.282C360.257 709.371 358.059 705.657 356.455 701.141C354.91 696.566 354.137 691.07 354.137 684.653V622.352H379.806V684.831C379.806 687.683 380.133 690.089 380.787 692.05C381.5 694.011 382.48 695.615 383.728 696.863C384.976 698.111 386.431 699.002 388.095 699.537C389.818 700.072 391.72 700.339 393.799 700.339C399.088 700.339 403.247 699.27 406.277 697.131C409.367 694.991 411.536 692.08 412.784 688.396C414.091 684.653 414.745 680.493 414.745 675.918ZM482.839 640.89V755.866H457.17V622.352H480.967L482.839 640.89ZM543.892 669.501V671.372C543.892 678.384 543.06 684.89 541.396 690.892C539.792 696.893 537.415 702.122 534.266 706.578C531.117 710.975 527.195 714.421 522.501 716.917C517.866 719.353 512.519 720.571 506.458 720.571C500.575 720.571 495.465 719.383 491.128 717.006C486.79 714.629 483.136 711.302 480.165 707.024C477.253 702.686 474.906 697.665 473.124 691.961C471.341 686.257 469.975 680.137 469.024 673.601V668.699C469.975 661.687 471.341 655.27 473.124 649.447C474.906 643.564 477.253 638.484 480.165 634.206C483.136 629.868 486.76 626.511 491.039 624.134C495.376 621.758 500.456 620.569 506.28 620.569C512.4 620.569 517.777 621.728 522.412 624.045C527.106 626.362 531.028 629.69 534.177 634.028C537.385 638.365 539.792 643.535 541.396 649.536C543.06 655.537 543.892 662.192 543.892 669.501ZM518.134 671.372V669.501C518.134 665.401 517.777 661.628 517.064 658.181C516.41 654.676 515.341 651.616 513.855 649.001C512.429 646.387 510.528 644.366 508.151 642.94C505.834 641.455 503.011 640.712 499.684 640.712C496.178 640.712 493.178 641.277 490.682 642.406C488.246 643.535 486.255 645.169 484.71 647.308C483.166 649.447 482.007 652.002 481.234 654.973C480.462 657.944 479.987 661.301 479.808 665.044V677.433C480.105 681.83 480.937 685.781 482.304 689.287C483.671 692.734 485.78 695.467 488.632 697.487C491.484 699.507 495.228 700.517 499.862 700.517C503.249 700.517 506.101 699.775 508.419 698.289C510.736 696.744 512.608 694.635 514.034 691.961C515.519 689.287 516.559 686.197 517.153 682.692C517.807 679.186 518.134 675.413 518.134 671.372Z" fill="#FCB03F"/>
</svg>
