<svg width="651" height="710" viewBox="0 0 651 710" fill="none" xmlns="http://www.w3.org/2000/svg">
<path d="M329 255.5V198.5" stroke="#033F38" stroke-width="4"/>
<path d="M415 307L466 277" stroke="#033F38" stroke-width="4"/>
<path d="M414 405.5L464.5 433" stroke="#033F38" stroke-width="4"/>
<path d="M242 403L188 437" stroke="#033F38" stroke-width="4"/>
<path d="M329 454V512" stroke="#033F38" stroke-width="4"/>
<rect x="228.534" width="198.682" height="198.682" rx="99.3411" fill="#FCB03F"/>
<path d="M311.453 105.652V108.957H301.889C300.101 108.957 298.692 108.768 297.663 108.388C296.633 108.009 295.866 107.323 295.36 106.329C294.872 105.318 294.628 103.855 294.628 101.94C294.628 100.116 294.863 98.7251 295.333 97.7679C295.802 96.7925 296.561 96.1152 297.609 95.7359C298.656 95.3385 300.128 95.1398 302.025 95.1398C303.036 95.1398 304.246 95.176 305.655 95.2482C307.064 95.3205 308.057 95.4017 308.635 95.492V105.652H311.453ZM298.259 101.94C298.259 102.952 298.385 103.728 298.638 104.27C298.909 104.794 299.315 105.155 299.857 105.354C300.399 105.553 301.14 105.652 302.079 105.652H305.005V98.5806C304.102 98.4903 303.154 98.4452 302.16 98.4452C301.167 98.4452 300.39 98.5445 299.83 98.7432C299.288 98.9419 298.891 99.2941 298.638 99.7998C298.385 100.288 298.259 101.001 298.259 101.94ZM298.882 89.5045H301.673V92.8911H298.882V89.5045ZM303 89.5045H305.791V92.8911H303V89.5045ZM334.784 105.652V108.957H311.457V105.652H315.033V95.4108H318.663V99.7456C319.476 98.7342 320.208 97.9124 320.858 97.2802C321.526 96.648 322.303 96.1332 323.188 95.7359C324.073 95.3385 325.094 95.1398 326.249 95.1398C328.525 95.1398 330.133 95.8443 331.072 97.2531C332.029 98.6439 332.508 100.278 332.508 102.157V105.652H334.784ZM325.41 98.4452C324.127 98.4452 322.872 99.0503 321.644 100.26C320.434 101.453 319.44 102.834 318.663 104.406V105.652H328.878V102.861C328.878 101.633 328.57 100.595 327.956 99.7456C327.36 98.8787 326.511 98.4452 325.41 98.4452ZM346.524 105.652V108.957H334.793V105.652H338.83V95.4108H342.46V105.652H346.524ZM338.938 89.369H342.27V92.8911H338.938V89.369ZM356.701 95.1669C358.561 95.1669 359.988 95.4379 360.981 95.9797C361.993 96.5216 362.67 97.2892 363.013 98.2826C363.374 99.276 363.555 100.576 363.555 102.184V108.957H346.514V105.652H350.74C350.487 104.351 350.361 103.205 350.361 102.211C350.361 101.218 350.46 100.152 350.659 99.0141C350.858 97.8762 351.083 96.8918 351.336 96.061C351.824 95.8262 352.546 95.6185 353.504 95.4379C354.461 95.2572 355.527 95.1669 356.701 95.1669ZM353.883 102.211C353.883 102.825 353.919 103.457 353.991 104.108C354.082 104.74 354.172 105.255 354.262 105.652H359.925V102.103C359.925 100.838 359.672 99.9082 359.166 99.3122C358.678 98.7161 357.73 98.4181 356.321 98.4181C355.635 98.4181 354.949 98.4903 354.262 98.6348C354.009 99.9895 353.883 101.182 353.883 102.211Z" fill="#033F38"/>
<rect x="229.438" y="255.578" width="198.682" height="198.682" rx="99.3411" fill="#FCB03F"/>
<path d="M303.446 329.988V343.535H291.742C290.17 343.535 288.834 343.418 287.732 343.183C286.648 342.948 285.754 342.451 285.05 341.693C284.345 340.934 283.993 339.805 283.993 338.306C283.993 337.529 284.074 336.644 284.237 335.651C284.417 334.639 284.616 333.718 284.833 332.887L287.759 333.05L287.569 334.757C287.389 336.075 287.298 336.978 287.298 337.466C287.298 339.308 288.635 340.23 291.308 340.23H299.815V329.988H303.446ZM290.468 326.602H293.259V329.988H290.468V326.602ZM294.586 326.602H297.377V329.988H294.586V326.602ZM313.79 340.23V343.535H307.504V324.57H311.135V340.23H313.79ZM333.772 340.23V343.535H332.281C331.974 343.535 331.685 343.427 331.414 343.21C331.144 342.993 330.945 342.713 330.818 342.37V343.535H313.777V340.23H318.003C317.751 338.929 317.624 337.782 317.624 336.789C317.624 335.795 317.723 334.73 317.922 333.592C318.121 332.454 318.347 331.469 318.599 330.639C319.087 330.404 319.81 330.196 320.767 330.015C321.724 329.835 322.79 329.745 323.964 329.745C325.824 329.745 327.251 330.015 328.245 330.557C329.256 331.099 329.933 331.867 330.277 332.86C330.638 333.854 330.818 335.154 330.818 336.762V339.065C330.945 339.426 331.144 339.715 331.414 339.932C331.685 340.13 331.974 340.23 332.281 340.23H333.772ZM321.146 336.789C321.146 337.403 321.182 338.035 321.255 338.685C321.345 339.317 321.435 339.832 321.525 340.23H327.188V336.68C327.188 335.416 326.935 334.486 326.429 333.89C325.942 333.294 324.993 332.996 323.585 332.996C322.898 332.996 322.212 333.068 321.525 333.212C321.273 334.567 321.146 335.759 321.146 336.789ZM357.675 340.23V343.535H349.818C349.222 343.535 348.644 343.436 348.084 343.237C347.542 343.038 347.1 342.803 346.757 342.532C346.034 343.201 345.131 343.535 344.047 343.535H333.779V340.23H337.924V331.343H341.555V340.23H342.801C343.488 340.23 344.011 339.959 344.373 339.417C344.752 338.857 344.941 338.143 344.941 337.276V331.343H348.572V337.276C348.572 338.198 348.482 339.019 348.301 339.742C348.464 339.868 348.671 339.986 348.924 340.094C349.195 340.184 349.466 340.23 349.737 340.23H351.769V336.518C351.769 335.362 351.751 334.387 351.715 333.592C351.679 332.779 351.597 331.614 351.471 330.097L354.641 329.961C354.839 331.117 355.011 332.291 355.156 333.483C355.318 334.675 355.399 335.515 355.399 336.003V340.23H357.675ZM364.634 324.57V343.535H357.671V340.23H361.003V324.57H364.634ZM368.966 324.57H372.597V343.535H368.966V324.57ZM291.641 382.23V385.535H282.077C280.289 385.535 278.88 385.345 277.851 384.966C276.821 384.587 276.054 383.9 275.548 382.907C275.06 381.895 274.816 380.432 274.816 378.518C274.816 376.694 275.051 375.303 275.521 374.345C275.99 373.37 276.749 372.693 277.797 372.314C278.844 371.916 280.316 371.717 282.213 371.717C283.224 371.717 284.434 371.754 285.843 371.826C287.252 371.898 288.245 371.979 288.823 372.07V382.23H291.641ZM278.447 378.518C278.447 379.529 278.573 380.306 278.826 380.848C279.097 381.372 279.503 381.733 280.045 381.932C280.587 382.13 281.328 382.23 282.267 382.23H285.193V375.158C284.29 375.068 283.342 375.023 282.348 375.023C281.355 375.023 280.578 375.122 280.018 375.321C279.476 375.52 279.079 375.872 278.826 376.377C278.573 376.865 278.447 377.579 278.447 378.518ZM279.07 366.082H281.861V369.469H279.07V366.082ZM283.188 366.082H285.979V369.469H283.188V366.082ZM303.376 382.23V385.535H291.645V382.23H295.682V371.988H299.312V382.23H303.376ZM294.002 387.702H296.792V391.089H294.002V387.702ZM298.12 387.702H300.911V391.089H298.12V387.702ZM324.227 371.961C324.426 373.117 324.598 374.291 324.742 375.483C324.905 376.675 324.986 377.515 324.986 378.003V385.535H319.405C318.809 385.535 318.231 385.436 317.671 385.237C317.129 385.038 316.686 384.803 316.343 384.532C315.621 385.201 314.718 385.535 313.634 385.535H303.366V382.23H307.511V373.343H311.141V382.23H312.388C313.074 382.23 313.598 381.959 313.959 381.417C314.338 380.857 314.528 380.143 314.528 379.276V373.343H318.158V379.276C318.158 380.198 318.068 381.019 317.888 381.742C318.05 381.868 318.258 381.986 318.511 382.094C318.782 382.184 319.053 382.23 319.323 382.23H321.355V378.518C321.355 377.362 321.337 376.387 321.301 375.592C321.265 374.779 321.184 373.614 321.057 372.097L324.227 371.961ZM335.075 382.23V385.535H328.79V366.57H332.42V382.23H335.075ZM355.924 371.961C356.123 373.117 356.294 374.291 356.439 375.483C356.601 376.675 356.683 377.515 356.683 378.003V385.535H351.101C350.505 385.535 349.927 385.436 349.367 385.237C348.826 385.038 348.383 384.803 348.04 384.532C347.317 385.201 346.414 385.535 345.331 385.535H335.062V382.23H339.208V373.343H342.838V382.23H344.084C344.771 382.23 345.295 381.959 345.656 381.417C346.035 380.857 346.225 380.143 346.225 379.276V373.343H349.855V379.276C349.855 380.198 349.765 381.019 349.584 381.742C349.747 381.868 349.955 381.986 350.207 382.094C350.478 382.184 350.749 382.23 351.02 382.23H353.052V378.518C353.052 377.362 353.034 376.387 352.998 375.592C352.962 374.779 352.881 373.614 352.754 372.097L355.924 371.961ZM373.735 366.57V385.535H359.403V382.23H362.816V370.227H366.447V382.23H370.104V366.57H373.735ZM367.612 367.383L361.679 368.548L361.381 367.274L362.627 366.949C361.922 366.353 361.57 365.622 361.57 364.755C361.57 364.014 361.832 363.373 362.356 362.831C362.898 362.289 363.584 362.018 364.415 362.018C365.119 362.018 365.824 362.235 366.528 362.668L366.176 364.294C366.068 364.204 365.914 364.122 365.715 364.05C365.517 363.96 365.291 363.915 365.038 363.915C364.623 363.915 364.279 364.05 364.009 364.321C363.756 364.592 363.629 364.917 363.629 365.296C363.629 365.802 363.846 366.209 364.279 366.516L367.233 365.73L367.612 367.383ZM377.764 366.57H381.394V385.535H377.764V366.57Z" fill="#033F38"/>
<path d="M243 307L191 276" stroke="#033F38" stroke-width="4"/>
<rect x="451.601" y="382.012" width="198.682" height="198.682" rx="99.3411" fill="#FCB03F"/>
<path d="M498.389 455.453V469H486.685C485.113 469 483.777 468.883 482.675 468.648C481.591 468.413 480.697 467.916 479.993 467.158C479.288 466.399 478.936 465.27 478.936 463.771C478.936 462.994 479.017 462.109 479.18 461.116C479.361 460.104 479.559 459.183 479.776 458.352L482.702 458.515L482.512 460.222C482.332 461.54 482.242 462.443 482.242 462.931C482.242 464.773 483.578 465.695 486.251 465.695H494.758V455.453H498.389ZM485.411 452.067H488.202V455.453H485.411V452.067ZM489.53 452.067H492.32V455.453H489.53V452.067ZM508.733 465.695V469H502.447V450.035H506.078V465.695H508.733ZM531.37 465.695V469H508.72V465.695H511.565V465.18C511.565 464.223 511.8 463.31 512.269 462.443C512.757 461.577 513.434 460.881 514.301 460.357C515.168 459.815 516.135 459.545 517.2 459.545C518.266 459.545 519.223 459.815 520.072 460.357C520.921 460.881 521.58 461.577 522.05 462.443C522.538 463.31 522.781 464.214 522.781 465.153V465.695H525.328V463.121C525.328 460.664 524.66 458.967 523.323 458.027C522.005 457.088 520.506 456.618 518.826 456.618C518.085 456.618 517.236 456.691 516.279 456.835C515.34 456.962 514.094 457.151 512.54 457.404L512.242 454.505C513.615 454.162 514.915 453.882 516.144 453.665C517.372 453.449 518.537 453.34 519.639 453.34C521.607 453.34 523.287 453.756 524.678 454.587C526.087 455.399 527.152 456.546 527.875 458.027C528.597 459.49 528.959 461.188 528.959 463.121V465.695H531.37ZM517.173 462.85C516.613 462.85 516.144 463.076 515.764 463.527C515.403 463.961 515.222 464.494 515.222 465.126V465.695H519.151V465.099C519.151 464.466 518.961 463.934 518.582 463.5C518.203 463.067 517.733 462.85 517.173 462.85ZM548.003 465.695V469H531.368V465.695H541.582V460.601C541.582 459.824 541.411 459.247 541.067 458.867C540.742 458.47 540.173 458.271 539.361 458.271C537.699 458.325 536.254 458.38 535.026 458.434L533.644 458.488L533.536 456.077C534.475 455.824 535.613 455.616 536.949 455.453C538.286 455.273 539.415 455.183 540.336 455.183C542.034 455.183 543.262 455.544 544.021 456.266C544.797 456.971 545.195 458.1 545.213 459.653V465.695H548.003ZM538.06 471.167H541.393V474.69H538.06V471.167ZM554.973 450.035V469H548.01V465.695H551.343V450.035H554.973ZM559.306 450.035H562.936V469H559.306V450.035ZM593.346 465.695V469H571.591V465.695H573.054V450.035H576.684V459.788C577.497 458.777 578.228 457.955 578.879 457.323C579.547 456.691 580.324 456.176 581.209 455.779C582.094 455.381 583.114 455.183 584.27 455.183C586.546 455.183 588.154 455.887 589.093 457.296C590.05 458.687 590.529 460.321 590.529 462.2V465.695H593.346ZM583.43 458.488C582.148 458.488 580.893 459.093 579.664 460.303C578.454 461.495 577.461 462.877 576.684 464.448V465.695H586.898V462.904C586.898 461.676 586.591 460.637 585.977 459.788C585.381 458.921 584.532 458.488 583.43 458.488ZM601.027 455.453V469H593.359V465.695H597.396V455.453H601.027ZM597.586 471.167H600.918V474.69H597.586V471.167ZM614.967 469H610.497C610.479 471.131 610.09 472.784 609.332 473.958C608.591 475.132 607.471 475.719 605.972 475.719C605.737 475.719 605.078 475.683 603.994 475.611V472.36L604.916 472.414C605.566 472.414 606.053 472.152 606.379 471.628C606.704 471.122 606.866 470.4 606.866 469.461V455.453H610.497V465.695H614.967V469ZM622.643 455.453V469H614.976V465.695H619.012V455.453H622.643ZM617.414 449.547H620.204V452.934H617.414V449.547ZM621.532 449.547H624.323V452.934H621.532V449.547ZM509.087 507.695V511H499.523C497.735 511 496.326 510.81 495.297 510.431C494.267 510.052 493.499 509.365 492.994 508.372C492.506 507.361 492.262 505.897 492.262 503.983C492.262 502.159 492.497 500.768 492.967 499.811C493.436 498.835 494.195 498.158 495.242 497.779C496.29 497.381 497.762 497.183 499.659 497.183C500.67 497.183 501.88 497.219 503.289 497.291C504.698 497.363 505.691 497.444 506.269 497.535V507.695H509.087ZM495.893 503.983C495.893 504.994 496.019 505.771 496.272 506.313C496.543 506.837 496.949 507.198 497.491 507.397C498.033 507.595 498.773 507.695 499.713 507.695H502.639V500.623C501.736 500.533 500.787 500.488 499.794 500.488C498.801 500.488 498.024 500.587 497.464 500.786C496.922 500.985 496.525 501.337 496.272 501.843C496.019 502.33 495.893 503.044 495.893 503.983ZM496.516 491.547H499.306V494.934H496.516V491.547ZM500.634 491.547H503.424V494.934H500.634V491.547ZM518.898 507.695V511H509.09V507.695H512.423V492.035H516.053V507.695H518.898ZM542.234 507.695V511H518.906V507.695H522.483V497.453H526.113V501.788C526.926 500.777 527.657 499.955 528.308 499.323C528.976 498.691 529.753 498.176 530.638 497.779C531.523 497.381 532.543 497.183 533.699 497.183C535.975 497.183 537.583 497.887 538.522 499.296C539.479 500.687 539.958 502.321 539.958 504.2V507.695H542.234ZM532.859 500.488C531.577 500.488 530.322 501.093 529.093 502.303C527.883 503.495 526.89 504.877 526.113 506.448V507.695H536.327V504.904C536.327 503.676 536.02 502.637 535.406 501.788C534.81 500.921 533.961 500.488 532.859 500.488ZM549.205 492.035V511H542.242V507.695H545.575V492.035H549.205ZM553.538 492.035H557.168V511H553.538V492.035ZM586.468 497.453V511H574.764C573.192 511 571.856 510.883 570.754 510.648C569.67 510.413 568.776 509.916 568.072 509.158C567.367 508.399 567.015 507.27 567.015 505.771C567.015 504.994 567.096 504.109 567.259 503.116C567.439 502.104 567.638 501.183 567.855 500.352L570.781 500.515L570.591 502.222C570.411 503.54 570.32 504.443 570.32 504.931C570.32 506.773 571.657 507.695 574.33 507.695H582.837V497.453H586.468ZM573.49 494.067H576.281V497.453H573.49V494.067ZM577.608 494.067H580.399V497.453H577.608V494.067ZM590.526 492.035H594.157V511H590.526V492.035ZM602.737 496.83C604.182 496.83 605.447 497.192 606.53 497.914C607.632 498.618 608.481 499.684 609.077 501.111C609.691 502.538 609.998 504.29 609.998 506.367V511H597.671V507.695H606.368V506.719C606.368 504.371 605.925 502.701 605.04 501.707C604.155 500.696 603.099 500.19 601.87 500.19H599.134L598.863 497.345C599.423 497.219 600.055 497.101 600.76 496.993C601.482 496.885 602.141 496.83 602.737 496.83ZM599.784 490.68H603.117V494.202H599.784V490.68Z" fill="#033F38"/>
<rect x="228.534" y="511.155" width="198.682" height="198.682" rx="99.3411" fill="#FCB03F"/>
<path d="M309.754 599.112H306.584V599.492C306.584 600.648 306.268 601.704 305.635 602.661C305.021 603.637 304.136 604.404 302.98 604.964C301.842 605.542 300.515 605.831 298.998 605.831C297.462 605.831 296.09 605.542 294.879 604.964C293.687 604.404 292.748 603.637 292.062 602.661C291.393 601.686 291.059 600.611 291.059 599.437C291.059 598.281 291.384 595.69 292.035 591.662L295.448 591.851C295.232 593.224 295.033 594.651 294.852 596.132C294.672 597.613 294.581 598.589 294.581 599.058C294.581 599.69 294.762 600.268 295.123 600.792C295.485 601.334 295.99 601.758 296.64 602.065C297.309 602.372 298.049 602.526 298.862 602.526C299.675 602.526 300.388 602.372 301.002 602.065C301.635 601.758 302.113 601.343 302.438 600.819C302.782 600.295 302.953 599.726 302.953 599.112V580.147H306.584V595.807H309.754V599.112ZM332.414 595.807V599.112H309.764V595.807H312.609V595.292C312.609 594.335 312.844 593.423 313.314 592.556C313.801 591.689 314.479 590.993 315.345 590.47C316.212 589.928 317.179 589.657 318.244 589.657C319.31 589.657 320.267 589.928 321.116 590.47C321.965 590.993 322.624 591.689 323.094 592.556C323.582 593.423 323.826 594.326 323.826 595.265V595.807H326.372V593.233C326.372 590.777 325.704 589.079 324.367 588.14C323.049 587.2 321.55 586.731 319.87 586.731C319.129 586.731 318.281 586.803 317.323 586.948C316.384 587.074 315.138 587.264 313.584 587.516L313.286 584.618C314.659 584.274 315.96 583.994 317.188 583.778C318.416 583.561 319.581 583.453 320.683 583.453C322.652 583.453 324.331 583.868 325.722 584.699C327.131 585.512 328.197 586.659 328.919 588.14C329.642 589.603 330.003 591.3 330.003 593.233V595.807H332.414ZM318.217 592.962C317.657 592.962 317.188 593.188 316.809 593.64C316.447 594.073 316.267 594.606 316.267 595.238V595.807H320.195V595.211C320.195 594.579 320.005 594.046 319.626 593.612C319.247 593.179 318.777 592.962 318.217 592.962ZM356.308 595.807V599.112H348.451C347.855 599.112 347.277 599.013 346.718 598.814C346.176 598.616 345.733 598.381 345.39 598.11C344.667 598.778 343.764 599.112 342.681 599.112H332.412V595.807H336.558V586.92H340.188V595.807H341.434C342.121 595.807 342.645 595.536 343.006 594.994C343.385 594.434 343.575 593.721 343.575 592.854V586.92H347.205V592.854C347.205 593.775 347.115 594.597 346.934 595.319C347.097 595.446 347.305 595.563 347.557 595.671C347.828 595.762 348.099 595.807 348.37 595.807H350.402V592.095C350.402 590.939 350.384 589.964 350.348 589.169C350.312 588.356 350.231 587.191 350.104 585.674L353.274 585.539C353.473 586.695 353.644 587.869 353.789 589.061C353.951 590.253 354.033 591.093 354.033 591.58V595.807H356.308ZM363.971 585.566V599.112H356.304V595.807H360.341V585.566H363.971ZM358.742 579.66H361.533V583.046H358.742V579.66ZM362.861 579.66H365.651V583.046H362.861V579.66ZM281.997 627.295C283.008 627.295 284.219 627.331 285.627 627.403C287.036 627.475 288.03 627.557 288.608 627.647V641.112H281.861C280.073 641.112 278.664 640.923 277.635 640.543C276.605 640.164 275.838 639.478 275.332 638.484C274.844 637.473 274.601 636.01 274.601 634.095C274.601 632.271 274.835 630.88 275.305 629.923C275.775 628.948 276.533 628.27 277.581 627.891C278.628 627.494 280.1 627.295 281.997 627.295ZM278.231 634.095C278.231 635.107 278.357 635.883 278.61 636.425C278.881 636.949 279.288 637.31 279.829 637.509C280.371 637.708 281.112 637.807 282.051 637.807H284.977V630.736C284.074 630.645 283.126 630.6 282.132 630.6C281.139 630.6 280.362 630.7 279.802 630.898C279.261 631.097 278.863 631.449 278.61 631.955C278.357 632.443 278.231 633.156 278.231 634.095ZM278.854 621.66H281.645V625.046H278.854V621.66ZM282.972 621.66H285.763V625.046H282.972V621.66ZM302.03 641.112H297.56C297.542 643.244 297.153 644.896 296.395 646.07C295.654 647.244 294.534 647.831 293.035 647.831C292.8 647.831 292.141 647.795 291.057 647.723V644.472L291.979 644.526C292.629 644.526 293.117 644.264 293.442 643.74C293.767 643.235 293.929 642.512 293.929 641.573V627.566H297.56V637.807H302.03V641.112ZM316.831 627.295C319.107 627.295 320.715 627.999 321.654 629.408C322.611 630.799 323.09 632.434 323.09 634.312V641.112H302.039V637.807H305.615V627.566H309.245V631.901C310.058 630.889 310.79 630.067 311.44 629.435C312.108 628.803 312.885 628.288 313.77 627.891C314.655 627.494 315.675 627.295 316.831 627.295ZM315.991 630.6C314.709 630.6 313.454 631.205 312.226 632.415C311.015 633.608 310.022 634.989 309.245 636.561V637.807H319.459V635.016C319.459 633.788 319.152 632.75 318.538 631.901C317.942 631.034 317.093 630.6 315.991 630.6ZM333.166 637.807V641.112H326.881V622.147H330.511V637.807H333.166ZM344.884 637.807V641.112H333.153V637.807H337.19V627.566H340.821V637.807H344.884ZM337.298 621.524H340.631V625.046H337.298V621.524ZM364.869 637.807V641.112H363.379C363.072 641.112 362.783 641.004 362.512 640.787C362.241 640.57 362.042 640.29 361.916 639.947V641.112H344.874V637.807H349.101C348.848 636.506 348.721 635.36 348.721 634.366C348.721 633.373 348.821 632.307 349.019 631.169C349.218 630.031 349.444 629.047 349.697 628.216C350.184 627.981 350.907 627.774 351.864 627.593C352.821 627.412 353.887 627.322 355.061 627.322C356.921 627.322 358.348 627.593 359.342 628.135C360.353 628.677 361.031 629.444 361.374 630.438C361.735 631.431 361.916 632.732 361.916 634.339V636.642C362.042 637.003 362.241 637.292 362.512 637.509C362.783 637.708 363.072 637.807 363.379 637.807H364.869ZM352.243 634.366C352.243 634.98 352.28 635.612 352.352 636.263C352.442 636.895 352.532 637.41 352.623 637.807H358.285V634.258C358.285 632.993 358.032 632.063 357.527 631.467C357.039 630.871 356.091 630.573 354.682 630.573C353.995 630.573 353.309 630.645 352.623 630.79C352.37 632.145 352.243 633.337 352.243 634.366ZM371.839 622.147V641.112H364.876V637.807H368.209V622.147H371.839ZM376.172 622.147H379.802V641.112H376.172V622.147Z" fill="#033F38"/>
<rect x="0.0498047" y="382.012" width="198.682" height="198.682" rx="99.3411" fill="#FCB03F"/>
<path d="M89.1848 487.664V490.969H79.621C77.8328 490.969 76.424 490.779 75.3945 490.4C74.3649 490.021 73.5973 489.334 73.0916 488.341C72.6039 487.329 72.3601 485.866 72.3601 483.952C72.3601 482.128 72.5949 480.737 73.0645 479.78C73.5341 478.804 74.2927 478.127 75.3403 477.748C76.3879 477.35 77.8599 477.152 79.7564 477.152C80.7679 477.152 81.9781 477.188 83.3869 477.26C84.7957 477.332 85.7892 477.413 86.3671 477.504V487.664H89.1848ZM75.9905 483.952C75.9905 484.963 76.1169 485.74 76.3698 486.282C76.6407 486.806 77.0471 487.167 77.589 487.366C78.1309 487.564 78.8714 487.664 79.8106 487.664H82.7367V480.592C81.8336 480.502 80.8853 480.457 79.8919 480.457C78.8985 480.457 78.1218 480.556 77.5619 480.755C77.0201 480.954 76.6227 481.306 76.3698 481.812C76.1169 482.299 75.9905 483.013 75.9905 483.952ZM76.6137 471.516H79.4042V474.903H76.6137V471.516ZM80.7318 471.516H83.5224V474.903H80.7318V471.516ZM96.8557 477.422V490.969H89.1884V487.664H93.2253V477.422H96.8557ZM93.4149 471.381H96.7474V474.903H93.4149V471.381ZM110.796 490.969H106.326C106.308 493.1 105.919 494.753 105.161 495.927C104.42 497.101 103.3 497.688 101.801 497.688C101.566 497.688 100.907 497.652 99.8235 497.58V494.329L100.745 494.383C101.395 494.383 101.883 494.121 102.208 493.597C102.533 493.091 102.695 492.369 102.695 491.43V477.422H106.326V487.664H110.796V490.969ZM120.992 477.179C122.852 477.179 124.279 477.45 125.272 477.991C126.284 478.533 126.961 479.301 127.304 480.294C127.666 481.288 127.846 482.588 127.846 484.196V490.969H110.805V487.664H115.031C114.778 486.363 114.652 485.216 114.652 484.223C114.652 483.229 114.751 482.164 114.95 481.026C115.149 479.888 115.374 478.904 115.627 478.073C116.115 477.838 116.837 477.63 117.795 477.45C118.752 477.269 119.818 477.179 120.992 477.179ZM118.174 484.223C118.174 484.837 118.21 485.469 118.282 486.119C118.373 486.752 118.463 487.266 118.553 487.664H124.216V484.114C124.216 482.85 123.963 481.92 123.457 481.324C122.969 480.728 122.021 480.43 120.612 480.43C119.926 480.43 119.24 480.502 118.553 480.647C118.3 482.001 118.174 483.193 118.174 484.223Z" fill="#033F38"/>
<rect x="7.27441" y="125.531" width="198.682" height="198.682" rx="99.3411" fill="#FCB03F"/>
<path d="M82.4689 210.183V213.488H72.9051C71.1169 213.488 69.7081 213.299 68.6786 212.919C67.649 212.54 66.8814 211.854 66.3757 210.86C65.888 209.849 65.6442 208.386 65.6442 206.471C65.6442 204.647 65.879 203.256 66.3486 202.299C66.8182 201.324 67.5768 200.646 68.6244 200.267C69.672 199.87 71.144 199.671 73.0405 199.671C74.052 199.671 75.2622 199.707 76.671 199.779C78.0799 199.851 79.0733 199.933 79.6512 200.023V210.183H82.4689ZM69.2746 206.471C69.2746 207.483 69.4011 208.259 69.6539 208.801C69.9249 209.325 70.3312 209.686 70.8731 209.885C71.415 210.084 72.1555 210.183 73.0947 210.183H76.0208V203.112C75.1177 203.021 74.1694 202.976 73.176 202.976C72.1826 202.976 71.4059 203.076 70.846 203.274C70.3042 203.473 69.9068 203.825 69.6539 204.331C69.4011 204.819 69.2746 205.532 69.2746 206.471ZM69.8978 194.035H72.6883V197.422H69.8978V194.035ZM74.0159 194.035H76.8065V197.422H74.0159V194.035ZM91.4403 199.671C93.1381 199.671 94.3664 200.032 95.125 200.755C95.9016 201.459 96.299 202.588 96.3171 204.141V213.488H82.4725V210.183H92.6866V205.089C92.6866 204.313 92.515 203.735 92.1718 203.355C91.8467 202.958 91.2778 202.759 90.465 202.759C88.8033 202.814 87.3583 202.868 86.1301 202.922L84.7483 202.976L84.64 200.565C85.5792 200.312 86.7171 200.104 88.0537 199.942C89.3903 199.761 90.5191 199.671 91.4403 199.671ZM106.403 210.183V213.488H100.118V194.523H103.748V210.183H106.403ZM130.287 210.183V213.488H122.43C121.834 213.488 121.256 213.389 120.696 213.19C120.154 212.992 119.711 212.757 119.368 212.486C118.646 213.154 117.743 213.488 116.659 213.488H106.391V210.183H110.536V201.296H114.166V210.183H115.413C116.099 210.183 116.623 209.912 116.984 209.37C117.363 208.81 117.553 208.097 117.553 207.23V201.296H121.183V207.23C121.183 208.151 121.093 208.973 120.912 209.695C121.075 209.822 121.283 209.939 121.536 210.047C121.807 210.138 122.077 210.183 122.348 210.183H124.38V206.471C124.38 205.315 124.362 204.34 124.326 203.545C124.29 202.732 124.209 201.567 124.082 200.05L127.252 199.915C127.451 201.071 127.622 202.245 127.767 203.437C127.93 204.629 128.011 205.469 128.011 205.956V210.183H130.287ZM140.469 199.698C142.33 199.698 143.756 199.969 144.75 200.511C145.761 201.053 146.439 201.82 146.782 202.814C147.143 203.807 147.324 205.108 147.324 206.715V213.488H130.282V210.183H134.509C134.256 208.882 134.129 207.736 134.129 206.742C134.129 205.749 134.229 204.683 134.427 203.545C134.626 202.407 134.852 201.423 135.105 200.592C135.592 200.357 136.315 200.149 137.272 199.969C138.229 199.788 139.295 199.698 140.469 199.698ZM137.651 206.742C137.651 207.356 137.688 207.988 137.76 208.639C137.85 209.271 137.94 209.786 138.031 210.183H143.693V206.634C143.693 205.369 143.44 204.439 142.935 203.843C142.447 203.247 141.499 202.949 140.09 202.949C139.403 202.949 138.717 203.021 138.031 203.166C137.778 204.52 137.651 205.713 137.651 206.742ZM96.3991 252.183V255.488H86.8352C85.0471 255.488 83.6383 255.299 82.6087 254.919C81.5792 254.54 80.8116 253.854 80.3058 252.86C79.8181 251.849 79.5743 250.386 79.5743 248.471C79.5743 246.647 79.8091 245.256 80.2787 244.299C80.7483 243.324 81.5069 242.646 82.5545 242.267C83.6021 241.87 85.0742 241.671 86.9707 241.671C87.9822 241.671 89.1923 241.707 90.6012 241.779C92.01 241.851 93.0034 241.933 93.5814 242.023V252.183H96.3991ZM83.2048 248.471C83.2048 249.483 83.3312 250.259 83.5841 250.801C83.855 251.325 84.2614 251.686 84.8033 251.885C85.3451 252.084 86.0857 252.183 87.0249 252.183H89.9509V245.112C89.0478 245.021 88.0996 244.976 87.1062 244.976C86.1128 244.976 85.3361 245.076 84.7762 245.274C84.2343 245.473 83.8369 245.825 83.5841 246.331C83.3312 246.819 83.2048 247.532 83.2048 248.471ZM83.8279 236.035H86.6185V239.422H83.8279V236.035ZM87.9461 236.035H90.7366V239.422H87.9461V236.035ZM108.134 252.183V255.488H96.4027V252.183H100.44V241.942H104.07V252.183H108.134ZM100.548 235.9H103.88V239.422H100.548V235.9ZM118.311 241.698C120.171 241.698 121.598 241.969 122.591 242.511C123.603 243.053 124.28 243.82 124.623 244.814C124.984 245.807 125.165 247.108 125.165 248.715V255.488H108.124V252.183H112.35C112.097 250.882 111.971 249.736 111.971 248.742C111.971 247.749 112.07 246.683 112.269 245.545C112.467 244.407 112.693 243.423 112.946 242.592C113.434 242.357 114.156 242.149 115.114 241.969C116.071 241.788 117.137 241.698 118.311 241.698ZM115.493 248.742C115.493 249.356 115.529 249.988 115.601 250.639C115.692 251.271 115.782 251.786 115.872 252.183H121.535V248.634C121.535 247.369 121.282 246.439 120.776 245.843C120.288 245.247 119.34 244.949 117.931 244.949C117.245 244.949 116.559 245.021 115.872 245.166C115.619 246.52 115.493 247.713 115.493 248.742ZM128.679 238.853H132.31V255.488H128.679V238.853ZM132.391 237.2C132.174 237.2 131.867 237.137 131.47 237.011C131.091 236.866 130.738 236.731 130.413 236.604C129.601 236.225 129.104 236.035 128.923 236.035C128.761 236.035 128.553 236.144 128.3 236.361C128.047 236.559 127.894 236.677 127.839 236.713L127.433 237.092L126.81 235.033C127.135 234.69 127.487 234.401 127.867 234.166C128.246 233.931 128.625 233.814 129.004 233.814C129.366 233.814 130.025 234.022 130.982 234.437C131.813 234.798 132.283 234.979 132.391 234.979C132.572 234.979 132.915 234.762 133.421 234.329L133.8 233.949L134.45 236.035C133.728 236.812 133.041 237.2 132.391 237.2Z" fill="#033F38"/>
<rect x="449.794" y="125.531" width="198.682" height="198.682" rx="99.3411" fill="#FCB03F"/>
<path d="M523.525 231.183V234.488H513.961C512.173 234.488 510.764 234.299 509.735 233.919C508.705 233.54 507.937 232.854 507.432 231.86C506.944 230.849 506.7 229.386 506.7 227.471C506.7 225.647 506.935 224.256 507.405 223.299C507.874 222.324 508.633 221.646 509.68 221.267C510.728 220.87 512.2 220.671 514.097 220.671C515.108 220.671 516.318 220.707 517.727 220.779C519.136 220.851 520.129 220.933 520.707 221.023V231.183H523.525ZM510.331 227.471C510.331 228.483 510.457 229.259 510.71 229.801C510.981 230.325 511.387 230.686 511.929 230.885C512.471 231.084 513.212 231.183 514.151 231.183H517.077V224.112C516.174 224.021 515.225 223.976 514.232 223.976C513.239 223.976 512.462 224.076 511.902 224.274C511.36 224.473 510.963 224.825 510.71 225.331C510.457 225.819 510.331 226.532 510.331 227.471ZM510.954 215.035H513.744V218.422H510.954V215.035ZM515.072 215.035H517.863V218.422H515.072V215.035ZM538.348 231.183V234.488H523.529V231.183H527.349C526.753 230.099 526.455 228.808 526.455 227.309C526.455 225.719 526.789 224.428 527.457 223.434C528.143 222.423 528.983 221.7 529.977 221.267C530.97 220.833 531.954 220.617 532.93 220.617C533.598 220.617 534.366 220.716 535.233 220.915C536.118 221.095 536.885 221.348 537.536 221.673L537.373 225.087C536.813 224.816 536.136 224.554 535.341 224.301C534.564 224.048 533.869 223.922 533.255 223.922C532.424 223.922 531.684 224.193 531.033 224.735C530.401 225.277 530.085 226.189 530.085 227.471C530.085 228.302 530.221 229.034 530.491 229.666C530.78 230.28 531.124 230.786 531.521 231.183H538.348ZM556.098 234.488H552.685C552.287 238.968 550.409 241.207 547.049 241.207C546.074 241.207 544.503 241.036 542.335 240.693V237.414C544.503 237.739 545.966 237.902 546.724 237.902C547.302 237.902 547.754 237.803 548.079 237.604C548.404 237.405 548.639 237.062 548.783 236.574C548.946 236.087 549.027 235.391 549.027 234.488H545.884C542.145 234.488 540.276 232.375 540.276 228.149C540.276 225.999 540.511 224.365 540.98 223.245C541.468 222.125 542.145 221.375 543.012 220.996C543.897 220.599 545.053 220.4 546.48 220.4C547.528 220.4 548.639 220.472 549.813 220.617C550.987 220.743 551.971 220.897 552.766 221.077V231.183H556.098V234.488ZM543.907 227.932C543.907 228.853 544.105 229.63 544.503 230.262C544.9 230.876 545.695 231.183 546.887 231.183H549.135V223.841C548.449 223.75 547.79 223.705 547.158 223.705C546.399 223.705 545.794 223.814 545.342 224.03C544.891 224.229 544.539 224.635 544.286 225.25C544.033 225.846 543.907 226.74 543.907 227.932ZM567.83 231.183V234.488H556.098V231.183H560.135V220.942H563.766V231.183H567.83ZM560.244 214.9H563.576V218.422H560.244V214.9ZM579.551 231.183V234.488H567.819V231.183H571.856V220.942H575.487V231.183H579.551ZM570.176 215.035H572.967V218.422H570.176V215.035ZM574.295 215.035H577.085V218.422H574.295V215.035ZM589.701 220.698C591.561 220.698 592.988 220.969 593.981 221.511C594.993 222.053 595.67 222.82 596.013 223.814C596.375 224.807 596.555 226.108 596.555 227.715V234.488H579.514V231.183H583.74C583.487 229.882 583.361 228.736 583.361 227.742C583.361 226.749 583.46 225.683 583.659 224.545C583.858 223.407 584.083 222.423 584.336 221.592C584.824 221.357 585.546 221.149 586.504 220.969C587.461 220.788 588.527 220.698 589.701 220.698ZM586.883 227.742C586.883 228.356 586.919 228.988 586.991 229.639C587.082 230.271 587.172 230.786 587.262 231.183H592.925V227.634C592.925 226.369 592.672 225.439 592.166 224.843C591.679 224.247 590.73 223.949 589.321 223.949C588.635 223.949 587.949 224.021 587.262 224.166C587.009 225.52 586.883 226.713 586.883 227.742Z" fill="#033F38"/>
</svg>
