<svg width="651" height="710" viewBox="0 0 651 710" fill="none" xmlns="http://www.w3.org/2000/svg">
<path d="M328.95 255.5V198.5" stroke="#033F38" stroke-width="4"/>
<path d="M414.95 307L465.95 277" stroke="#033F38" stroke-width="4"/>
<path d="M413.95 405.5L464.45 433" stroke="#033F38" stroke-width="4"/>
<path d="M241.95 403L187.95 437" stroke="#033F38" stroke-width="4"/>
<path d="M328.95 454V512" stroke="#033F38" stroke-width="4"/>
<rect x="228.484" width="198.682" height="198.682" rx="99.3411" fill="#FCB03F"/>
<path d="M260.325 109L265.039 90.4955H271.569L276.256 109H272.517L271.487 105.261H265.012L264.037 109H260.325ZM265.608 102.254H270.946L268.859 93.5299H267.722L265.608 102.254ZM284.196 109V90.4955H291.159C292.694 90.4955 293.968 90.7122 294.979 91.1457C295.991 91.5611 296.749 92.2384 297.255 93.1777C297.779 94.1169 298.041 95.3722 298.041 96.9436C298.041 98.515 297.779 99.7974 297.255 100.791C296.749 101.766 295.991 102.489 294.979 102.958C293.968 103.41 292.694 103.636 291.159 103.636H287.935V109H284.196ZM287.935 100.574H291.051C292.189 100.574 293.001 100.276 293.489 99.68C293.977 99.0659 294.221 98.1628 294.221 96.9707C294.221 95.7425 293.977 94.8665 293.489 94.3427C293.001 93.8189 292.189 93.557 291.051 93.557H287.935V100.574ZM300.333 109V89.8452H303.936V109H300.333ZM310.574 109.298C309.165 109.298 308.099 108.946 307.377 108.241C306.672 107.519 306.32 106.435 306.32 104.99C306.32 103.979 306.501 103.193 306.862 102.633C307.223 102.055 307.756 101.64 308.46 101.387C309.183 101.116 310.059 100.953 311.088 100.899L314.394 100.601V99.7884C314.394 99.1381 314.231 98.6866 313.906 98.4337C313.581 98.1628 313.102 98.0273 312.47 98.0273C311.964 98.0273 311.377 98.0454 310.709 98.0815C310.059 98.1176 309.409 98.1628 308.758 98.217C308.126 98.2712 307.575 98.3253 307.106 98.3795L306.997 95.8328C307.467 95.7244 308.027 95.616 308.677 95.5077C309.345 95.3812 310.041 95.2819 310.763 95.2097C311.486 95.1374 312.154 95.1013 312.768 95.1013C313.924 95.1013 314.89 95.2458 315.667 95.5348C316.444 95.8238 317.031 96.3024 317.428 96.9707C317.825 97.6209 318.024 98.506 318.024 99.6258V105.83C318.06 106.083 318.196 106.282 318.431 106.426C318.665 106.553 318.936 106.643 319.243 106.697L319.162 109.19C318.729 109.208 318.304 109.217 317.889 109.217C317.473 109.217 317.121 109.19 316.832 109.135C316.417 109.081 316.055 108.973 315.748 108.81C315.459 108.648 315.225 108.476 315.044 108.296C314.755 108.422 314.367 108.567 313.879 108.729C313.391 108.892 312.858 109.027 312.28 109.135C311.721 109.244 311.152 109.298 310.574 109.298ZM311.441 106.616C311.784 106.616 312.145 106.58 312.524 106.507C312.904 106.435 313.256 106.354 313.581 106.264C313.924 106.155 314.195 106.056 314.394 105.966V102.85L311.63 103.094C311.034 103.148 310.601 103.329 310.33 103.636C310.077 103.925 309.95 104.34 309.95 104.882C309.95 105.424 310.068 105.848 310.303 106.155C310.556 106.462 310.935 106.616 311.441 106.616ZM325.974 109.325C324.981 109.325 324.177 109.181 323.563 108.892C322.949 108.603 322.506 108.106 322.235 107.402C321.983 106.679 321.856 105.677 321.856 104.394V98.4066H320.258V95.3993H321.856V91.7959H325.459V95.3993H328.927V98.4066H325.459V103.446C325.459 104.15 325.487 104.701 325.541 105.099C325.613 105.496 325.758 105.776 325.974 105.938C326.191 106.101 326.525 106.182 326.977 106.182C327.103 106.182 327.293 106.173 327.546 106.155C327.799 106.137 328.051 106.119 328.304 106.101C328.557 106.083 328.765 106.065 328.927 106.047L329.036 108.946C328.602 109.018 328.078 109.099 327.464 109.19C326.868 109.28 326.372 109.325 325.974 109.325ZM331.484 109V98.4066H330.13V95.3993H331.484V94.6136C331.484 93.3312 331.602 92.3197 331.837 91.5792C332.089 90.8386 332.514 90.3148 333.11 90.0078C333.706 89.7007 334.51 89.5472 335.521 89.5472C335.81 89.5472 336.153 89.5653 336.551 89.6014C336.966 89.6195 337.363 89.6465 337.743 89.6827C338.122 89.7188 338.411 89.7549 338.61 89.791L338.583 92.5545C338.294 92.5545 337.969 92.5545 337.607 92.5545C337.264 92.5365 336.966 92.5274 336.713 92.5274C336.316 92.5274 335.991 92.5907 335.738 92.7171C335.503 92.8435 335.332 93.0512 335.223 93.3402C335.133 93.6292 335.088 94.0447 335.088 94.5865V95.3993H338.339V98.4066H335.088V109H331.484ZM346.055 109.298C344.52 109.298 343.282 109.045 342.343 108.539C341.422 108.034 340.754 107.257 340.338 106.209C339.923 105.144 339.715 103.771 339.715 102.091C339.715 100.466 339.932 99.1472 340.365 98.1357C340.799 97.1062 341.485 96.3476 342.424 95.8599C343.364 95.3541 344.574 95.1013 346.055 95.1013C347.554 95.1013 348.764 95.3541 349.685 95.8599C350.625 96.3476 351.311 97.1062 351.744 98.1357C352.196 99.1472 352.422 100.466 352.422 102.091C352.422 103.771 352.214 105.144 351.799 106.209C351.383 107.257 350.706 108.034 349.767 108.539C348.845 109.045 347.608 109.298 346.055 109.298ZM346.055 106.318C346.813 106.318 347.382 106.182 347.762 105.911C348.141 105.622 348.394 105.171 348.52 104.557C348.665 103.925 348.737 103.103 348.737 102.091C348.737 101.098 348.656 100.312 348.493 99.7342C348.331 99.1381 348.06 98.7137 347.68 98.4608C347.301 98.2079 346.759 98.0815 346.055 98.0815C345.368 98.0815 344.827 98.2079 344.429 98.4608C344.05 98.7137 343.779 99.1381 343.616 99.7342C343.454 100.312 343.373 101.098 343.373 102.091C343.373 103.103 343.436 103.925 343.562 104.557C343.707 105.171 343.969 105.622 344.348 105.911C344.727 106.182 345.296 106.318 346.055 106.318ZM354.887 109V95.3993H358.49V96.9978C358.797 96.763 359.177 96.5191 359.628 96.2663C360.08 95.9953 360.567 95.7515 361.091 95.5348C361.633 95.3 362.148 95.1464 362.636 95.0742V98.5692C362.166 98.6414 361.669 98.7679 361.145 98.9485C360.622 99.111 360.125 99.2917 359.655 99.4903C359.204 99.689 358.815 99.8697 358.49 100.032V109H354.887ZM364.518 109V95.3993H368.121V96.2663C368.536 96.0134 369.096 95.7605 369.801 95.5077C370.505 95.2367 371.174 95.1013 371.806 95.1013C372.637 95.1013 373.314 95.2187 373.838 95.4535C374.361 95.6702 374.795 95.9953 375.138 96.4288C375.463 96.2302 375.87 96.0315 376.357 95.8328C376.845 95.6341 377.378 95.4625 377.956 95.318C378.534 95.1735 379.094 95.1013 379.636 95.1013C380.972 95.1013 381.993 95.3361 382.697 95.8057C383.402 96.2753 383.889 97.0159 384.16 98.0273C384.431 99.0207 384.567 100.321 384.567 101.929V109H380.963V102.254C380.963 101.315 380.909 100.556 380.801 99.978C380.71 99.382 380.512 98.9485 380.205 98.6776C379.916 98.4066 379.473 98.2712 378.877 98.2712C378.353 98.2712 377.838 98.3434 377.333 98.4879C376.827 98.6324 376.43 98.7769 376.141 98.9214C376.231 99.3007 376.294 99.7884 376.33 100.384C376.384 100.98 376.412 101.604 376.412 102.254V109H372.808V102.308C372.808 101.351 372.754 100.574 372.646 99.978C372.555 99.382 372.357 98.9485 372.05 98.6776C371.742 98.4066 371.3 98.2712 370.722 98.2712C370.216 98.2712 369.72 98.3434 369.232 98.4879C368.762 98.6324 368.392 98.7769 368.121 98.9214V109H364.518Z" fill="#033F38"/>
<rect x="229.388" y="255.578" width="198.682" height="198.682" rx="99.3411" fill="#FCB03F"/>
<path d="M244.707 365V346.495H250.722L254.46 358.85L258.118 346.495H264.214V365H260.475V351.291H260.096L256.221 364.512H252.699L248.825 351.291H248.446V365H244.707ZM270.952 365.298C269.543 365.298 268.477 364.946 267.755 364.241C267.051 363.519 266.698 362.435 266.698 360.99C266.698 359.979 266.879 359.193 267.24 358.633C267.601 358.055 268.134 357.64 268.839 357.387C269.561 357.116 270.437 356.953 271.467 356.899L274.772 356.601V355.788C274.772 355.138 274.61 354.687 274.284 354.434C273.959 354.163 273.481 354.027 272.848 354.027C272.343 354.027 271.756 354.045 271.087 354.082C270.437 354.118 269.787 354.163 269.137 354.217C268.505 354.271 267.954 354.325 267.484 354.38L267.376 351.833C267.845 351.724 268.405 351.616 269.055 351.508C269.724 351.381 270.419 351.282 271.142 351.21C271.864 351.137 272.532 351.101 273.146 351.101C274.302 351.101 275.269 351.246 276.045 351.535C276.822 351.824 277.409 352.302 277.806 352.971C278.204 353.621 278.403 354.506 278.403 355.626V361.83C278.439 362.083 278.574 362.282 278.809 362.426C279.044 362.553 279.315 362.643 279.622 362.697L279.54 365.19C279.107 365.208 278.683 365.217 278.267 365.217C277.852 365.217 277.499 365.19 277.21 365.135C276.795 365.081 276.434 364.973 276.127 364.81C275.838 364.648 275.603 364.476 275.422 364.296C275.133 364.422 274.745 364.567 274.257 364.729C273.77 364.892 273.237 365.027 272.659 365.135C272.099 365.244 271.53 365.298 270.952 365.298ZM271.819 362.616C272.162 362.616 272.523 362.58 272.903 362.507C273.282 362.435 273.634 362.354 273.959 362.264C274.302 362.155 274.573 362.056 274.772 361.966V358.85L272.009 359.094C271.413 359.148 270.979 359.329 270.708 359.636C270.455 359.925 270.329 360.34 270.329 360.882C270.329 361.424 270.446 361.848 270.681 362.155C270.934 362.462 271.313 362.616 271.819 362.616ZM281.584 365V351.399H285.188V365H281.584ZM281.584 349.232V346.143H285.215V349.232H281.584ZM288.199 365V351.399H291.802V352.266C292.091 352.086 292.443 351.914 292.859 351.752C293.274 351.571 293.708 351.417 294.159 351.291C294.629 351.164 295.08 351.101 295.514 351.101C296.778 351.101 297.754 351.327 298.44 351.779C299.144 352.212 299.641 352.935 299.93 353.946C300.219 354.939 300.364 356.276 300.364 357.956V365H296.733V358.145C296.733 357.206 296.679 356.457 296.571 355.897C296.462 355.319 296.254 354.903 295.947 354.65C295.64 354.398 295.189 354.271 294.593 354.271C294.268 354.271 293.924 354.307 293.563 354.38C293.22 354.434 292.886 354.515 292.561 354.623C292.254 354.732 292.001 354.84 291.802 354.948V365H288.199ZM309.291 365V346.495H321.239V349.638H313.03V355.219H319.749V358.362H313.03V365H309.291ZM328.782 365.298C327.283 365.298 326.091 365.045 325.206 364.539C324.339 364.034 323.716 363.266 323.336 362.237C322.957 361.207 322.767 359.916 322.767 358.362C322.767 356.682 323.002 355.31 323.472 354.244C323.959 353.178 324.664 352.393 325.585 351.887C326.506 351.363 327.644 351.101 328.999 351.101C331.004 351.101 332.512 351.607 333.523 352.618C334.553 353.63 335.068 355.228 335.068 357.414L334.905 359.419H326.398C326.416 360.43 326.624 361.189 327.021 361.695C327.418 362.2 328.105 362.453 329.08 362.453C329.64 362.453 330.254 362.444 330.922 362.426C331.591 362.39 332.25 362.354 332.9 362.318C333.568 362.282 334.137 362.246 334.607 362.209L334.688 364.729C334.237 364.801 333.668 364.883 332.981 364.973C332.295 365.063 331.582 365.135 330.841 365.19C330.119 365.262 329.432 365.298 328.782 365.298ZM326.398 357.116H331.464C331.464 355.888 331.266 355.03 330.868 354.542C330.489 354.054 329.866 353.811 328.999 353.811C328.15 353.811 327.5 354.063 327.048 354.569C326.615 355.075 326.398 355.924 326.398 357.116ZM341.013 365.298C339.604 365.298 338.538 364.946 337.816 364.241C337.111 363.519 336.759 362.435 336.759 360.99C336.759 359.979 336.94 359.193 337.301 358.633C337.662 358.055 338.195 357.64 338.9 357.387C339.622 357.116 340.498 356.953 341.528 356.899L344.833 356.601V355.788C344.833 355.138 344.67 354.687 344.345 354.434C344.02 354.163 343.542 354.027 342.909 354.027C342.404 354.027 341.817 354.045 341.148 354.082C340.498 354.118 339.848 354.163 339.198 354.217C338.565 354.271 338.015 354.325 337.545 354.38L337.437 351.833C337.906 351.724 338.466 351.616 339.116 351.508C339.785 351.381 340.48 351.282 341.202 351.21C341.925 351.137 342.593 351.101 343.207 351.101C344.363 351.101 345.33 351.246 346.106 351.535C346.883 351.824 347.47 352.302 347.867 352.971C348.265 353.621 348.463 354.506 348.463 355.626V361.83C348.5 362.083 348.635 362.282 348.87 362.426C349.105 362.553 349.376 362.643 349.683 362.697L349.601 365.19C349.168 365.208 348.743 365.217 348.328 365.217C347.913 365.217 347.56 365.19 347.271 365.135C346.856 365.081 346.495 364.973 346.188 364.81C345.899 364.648 345.664 364.476 345.483 364.296C345.194 364.422 344.806 364.567 344.318 364.729C343.83 364.892 343.298 365.027 342.72 365.135C342.16 365.244 341.591 365.298 341.013 365.298ZM341.88 362.616C342.223 362.616 342.584 362.58 342.964 362.507C343.343 362.435 343.695 362.354 344.02 362.264C344.363 362.155 344.634 362.056 344.833 361.966V358.85L342.069 359.094C341.473 359.148 341.04 359.329 340.769 359.636C340.516 359.925 340.39 360.34 340.39 360.882C340.39 361.424 340.507 361.848 340.742 362.155C340.995 362.462 341.374 362.616 341.88 362.616ZM356.414 365.325C355.42 365.325 354.616 365.181 354.002 364.892C353.388 364.603 352.946 364.106 352.675 363.402C352.422 362.679 352.295 361.677 352.295 360.394V354.407H350.697V351.399H352.295V347.796H355.899V351.399H359.367V354.407H355.899V359.446C355.899 360.15 355.926 360.701 355.98 361.099C356.052 361.496 356.197 361.776 356.414 361.938C356.63 362.101 356.964 362.182 357.416 362.182C357.542 362.182 357.732 362.173 357.985 362.155C358.238 362.137 358.491 362.119 358.744 362.101C358.996 362.083 359.204 362.065 359.367 362.047L359.475 364.946C359.042 365.018 358.518 365.099 357.904 365.19C357.308 365.28 356.811 365.325 356.414 365.325ZM365.717 365.298C364.543 365.298 363.63 365.054 362.98 364.567C362.348 364.061 361.896 363.302 361.626 362.291C361.373 361.279 361.246 360.006 361.246 358.471V351.399H364.85V358.308C364.85 359.265 364.895 360.024 364.985 360.584C365.093 361.144 365.301 361.541 365.608 361.776C365.915 362.011 366.358 362.128 366.936 362.128C367.496 362.128 368.019 362.056 368.507 361.911C368.995 361.767 369.383 361.622 369.672 361.478V351.399H373.276V365H369.699V364.16C369.085 364.503 368.471 364.783 367.857 365C367.261 365.199 366.547 365.298 365.717 365.298ZM376.251 365V351.399H379.854V352.998C380.162 352.763 380.541 352.519 380.992 352.266C381.444 351.995 381.932 351.752 382.455 351.535C382.997 351.3 383.512 351.146 384 351.074V354.569C383.53 354.641 383.033 354.768 382.51 354.948C381.986 355.111 381.489 355.292 381.019 355.49C380.568 355.689 380.18 355.87 379.854 356.032V365H376.251ZM391.382 365.298C389.883 365.298 388.69 365.045 387.805 364.539C386.938 364.034 386.315 363.266 385.936 362.237C385.557 361.207 385.367 359.916 385.367 358.362C385.367 356.682 385.602 355.31 386.071 354.244C386.559 353.178 387.264 352.393 388.185 351.887C389.106 351.363 390.244 351.101 391.598 351.101C393.603 351.101 395.112 351.607 396.123 352.618C397.153 353.63 397.667 355.228 397.667 357.414L397.505 359.419H388.998C389.016 360.43 389.223 361.189 389.621 361.695C390.018 362.2 390.704 362.453 391.68 362.453C392.24 362.453 392.854 362.444 393.522 362.426C394.19 362.39 394.85 362.354 395.5 362.318C396.168 362.282 396.737 362.246 397.207 362.209L397.288 364.729C396.836 364.801 396.267 364.883 395.581 364.973C394.895 365.063 394.181 365.135 393.441 365.19C392.718 365.262 392.032 365.298 391.382 365.298ZM388.998 357.116H394.064C394.064 355.888 393.865 355.03 393.468 354.542C393.089 354.054 392.465 353.811 391.598 353.811C390.75 353.811 390.099 354.063 389.648 354.569C389.214 355.075 388.998 355.924 388.998 357.116ZM404.967 365.298C404.371 365.298 403.73 365.262 403.044 365.19C402.375 365.135 401.743 365.063 401.147 364.973C400.569 364.883 400.072 364.792 399.657 364.702L399.765 362.02C400.235 362.074 400.759 362.137 401.337 362.209C401.933 362.282 402.511 362.345 403.071 362.399C403.649 362.435 404.118 362.453 404.479 362.453C405.021 362.453 405.464 362.408 405.807 362.318C406.168 362.227 406.439 362.083 406.62 361.884C406.8 361.668 406.891 361.361 406.891 360.963C406.891 360.656 406.809 360.421 406.647 360.259C406.502 360.096 406.213 359.961 405.78 359.852C405.365 359.726 404.75 359.599 403.938 359.473C402.926 359.329 402.086 359.121 401.418 358.85C400.768 358.579 400.289 358.182 399.982 357.658C399.675 357.116 399.521 356.384 399.521 355.463C399.521 354.343 399.765 353.467 400.253 352.835C400.741 352.203 401.391 351.761 402.204 351.508C403.016 351.237 403.902 351.101 404.859 351.101C405.491 351.101 406.141 351.137 406.809 351.21C407.478 351.264 408.11 351.336 408.706 351.426C409.302 351.517 409.799 351.607 410.196 351.697L410.088 354.434C409.636 354.361 409.112 354.298 408.516 354.244C407.92 354.172 407.324 354.118 406.728 354.082C406.15 354.045 405.663 354.027 405.265 354.027C404.85 354.027 404.479 354.072 404.154 354.163C403.829 354.235 403.576 354.361 403.396 354.542C403.233 354.723 403.152 354.994 403.152 355.355C403.152 355.608 403.224 355.815 403.369 355.978C403.513 356.141 403.784 356.285 404.181 356.412C404.597 356.52 405.193 356.628 405.97 356.737C407.089 356.899 407.984 357.125 408.652 357.414C409.32 357.703 409.799 358.118 410.088 358.66C410.395 359.202 410.548 359.934 410.548 360.855C410.548 362.498 410.061 363.654 409.085 364.323C408.128 364.973 406.755 365.298 404.967 365.298Z" fill="#033F38"/>
<path d="M242.95 307L190.95 276" stroke="#033F38" stroke-width="4"/>
<rect x="451.551" y="382.012" width="198.682" height="198.682" rx="99.3411" fill="#FCB03F"/>
<path d="M483.31 472V453.495H487.049V468.83H494.364V472H483.31ZM496.164 472V458.399H499.767V472H496.164ZM496.164 456.232V453.143H499.794V456.232H496.164ZM502.778 472V458.399H506.382V459.266C506.671 459.086 507.023 458.914 507.438 458.752C507.854 458.571 508.287 458.417 508.739 458.291C509.208 458.164 509.66 458.101 510.093 458.101C511.358 458.101 512.333 458.327 513.019 458.779C513.724 459.212 514.22 459.935 514.509 460.946C514.798 461.939 514.943 463.276 514.943 464.956V472H511.312V465.145C511.312 464.206 511.258 463.457 511.15 462.897C511.042 462.319 510.834 461.903 510.527 461.65C510.22 461.398 509.768 461.271 509.172 461.271C508.847 461.271 508.504 461.307 508.143 461.38C507.799 461.434 507.465 461.515 507.14 461.623C506.833 461.732 506.58 461.84 506.382 461.948V472H502.778ZM517.753 472V452.845H521.357V463.52L522.955 463.466L525.773 458.399H529.539L526.098 464.793L529.729 472H525.936L523.009 466.608L521.357 466.69V472H517.753ZM537.412 472V458.399H541.015V459.998C541.322 459.763 541.701 459.519 542.153 459.266C542.605 458.995 543.092 458.752 543.616 458.535C544.158 458.3 544.673 458.146 545.16 458.074V461.569C544.691 461.641 544.194 461.768 543.67 461.948C543.146 462.111 542.65 462.292 542.18 462.49C541.729 462.689 541.34 462.87 541.015 463.032V472H537.412ZM552.542 472.298C551.043 472.298 549.851 472.045 548.966 471.539C548.099 471.034 547.476 470.266 547.097 469.237C546.717 468.207 546.528 466.916 546.528 465.362C546.528 463.682 546.763 462.31 547.232 461.244C547.72 460.178 548.424 459.393 549.345 458.887C550.267 458.363 551.404 458.101 552.759 458.101C554.764 458.101 556.272 458.607 557.284 459.618C558.313 460.63 558.828 462.228 558.828 464.414L558.665 466.419H550.158C550.176 467.43 550.384 468.189 550.781 468.695C551.179 469.2 551.865 469.453 552.84 469.453C553.4 469.453 554.014 469.444 554.683 469.426C555.351 469.39 556.01 469.354 556.66 469.318C557.329 469.282 557.898 469.246 558.367 469.209L558.449 471.729C557.997 471.801 557.428 471.883 556.742 471.973C556.055 472.063 555.342 472.135 554.601 472.19C553.879 472.262 553.193 472.298 552.542 472.298ZM550.158 464.116H555.225C555.225 462.888 555.026 462.03 554.629 461.542C554.249 461.054 553.626 460.811 552.759 460.811C551.91 460.811 551.26 461.063 550.808 461.569C550.375 462.075 550.158 462.924 550.158 464.116ZM561.332 472V452.845H564.936V472H561.332ZM571.573 472.298C570.164 472.298 569.098 471.946 568.376 471.241C567.671 470.519 567.319 469.435 567.319 467.99C567.319 466.979 567.5 466.193 567.861 465.633C568.222 465.055 568.755 464.64 569.46 464.387C570.182 464.116 571.058 463.953 572.088 463.899L575.393 463.601V462.788C575.393 462.138 575.23 461.687 574.905 461.434C574.58 461.163 574.102 461.027 573.469 461.027C572.964 461.027 572.377 461.045 571.708 461.082C571.058 461.118 570.408 461.163 569.758 461.217C569.125 461.271 568.575 461.325 568.105 461.38L567.997 458.833C568.466 458.724 569.026 458.616 569.676 458.508C570.345 458.381 571.04 458.282 571.763 458.21C572.485 458.137 573.153 458.101 573.767 458.101C574.923 458.101 575.89 458.246 576.666 458.535C577.443 458.824 578.03 459.302 578.427 459.971C578.825 460.621 579.023 461.506 579.023 462.626V468.83C579.06 469.083 579.195 469.282 579.43 469.426C579.665 469.553 579.936 469.643 580.243 469.697L580.161 472.19C579.728 472.208 579.303 472.217 578.888 472.217C578.473 472.217 578.12 472.19 577.831 472.135C577.416 472.081 577.055 471.973 576.748 471.81C576.459 471.648 576.224 471.476 576.043 471.296C575.754 471.422 575.366 471.567 574.878 471.729C574.391 471.892 573.858 472.027 573.28 472.135C572.72 472.244 572.151 472.298 571.573 472.298ZM572.44 469.616C572.783 469.616 573.144 469.58 573.524 469.507C573.903 469.435 574.255 469.354 574.58 469.264C574.923 469.155 575.194 469.056 575.393 468.966V465.85L572.629 466.094C572.033 466.148 571.6 466.329 571.329 466.636C571.076 466.925 570.95 467.34 570.95 467.882C570.95 468.424 571.067 468.848 571.302 469.155C571.555 469.462 571.934 469.616 572.44 469.616ZM586.974 472.325C585.98 472.325 585.176 472.181 584.562 471.892C583.948 471.603 583.506 471.106 583.235 470.402C582.982 469.679 582.855 468.677 582.855 467.394V461.407H581.257V458.399H582.855V454.796H586.459V458.399H589.927V461.407H586.459V466.446C586.459 467.15 586.486 467.701 586.54 468.099C586.612 468.496 586.757 468.776 586.974 468.938C587.19 469.101 587.524 469.182 587.976 469.182C588.102 469.182 588.292 469.173 588.545 469.155C588.798 469.137 589.051 469.119 589.304 469.101C589.556 469.083 589.764 469.065 589.927 469.047L590.035 471.946C589.602 472.018 589.078 472.099 588.464 472.19C587.868 472.28 587.371 472.325 586.974 472.325ZM597.442 472.298C595.942 472.298 594.75 472.045 593.865 471.539C592.998 471.034 592.375 470.266 591.996 469.237C591.617 468.207 591.427 466.916 591.427 465.362C591.427 463.682 591.662 462.31 592.131 461.244C592.619 460.178 593.323 459.393 594.245 458.887C595.166 458.363 596.304 458.101 597.658 458.101C599.663 458.101 601.171 458.607 602.183 459.618C603.212 460.63 603.727 462.228 603.727 464.414L603.565 466.419H595.057C595.075 467.43 595.283 468.189 595.681 468.695C596.078 469.2 596.764 469.453 597.74 469.453C598.3 469.453 598.914 469.444 599.582 469.426C600.25 469.39 600.91 469.354 601.56 469.318C602.228 469.282 602.797 469.246 603.267 469.209L603.348 471.729C602.896 471.801 602.327 471.883 601.641 471.973C600.955 472.063 600.241 472.135 599.501 472.19C598.778 472.262 598.092 472.298 597.442 472.298ZM595.057 464.116H600.124C600.124 462.888 599.925 462.03 599.528 461.542C599.148 461.054 598.525 460.811 597.658 460.811C596.809 460.811 596.159 461.063 595.708 461.569C595.274 462.075 595.057 462.924 595.057 464.116ZM610.702 472.298C610.052 472.298 609.456 472.217 608.914 472.054C608.372 471.91 607.893 471.675 607.478 471.35C607.081 471.007 606.737 470.564 606.448 470.022C606.177 469.48 605.97 468.821 605.825 468.044C605.681 467.25 605.608 466.329 605.608 465.281C605.608 463.728 605.798 462.418 606.177 461.352C606.575 460.287 607.198 459.483 608.047 458.941C608.896 458.381 610.025 458.101 611.433 458.101C611.849 458.101 612.337 458.137 612.896 458.21C613.474 458.264 613.935 458.318 614.278 458.372V452.845H617.909V472H614.332L614.305 471.214C614.052 471.359 613.718 471.521 613.303 471.702C612.906 471.865 612.481 472 612.03 472.108C611.578 472.235 611.135 472.298 610.702 472.298ZM611.623 469.264C611.948 469.264 612.273 469.227 612.598 469.155C612.942 469.083 613.258 469.002 613.547 468.911C613.854 468.803 614.098 468.704 614.278 468.613V461.325C614.116 461.289 613.899 461.262 613.628 461.244C613.357 461.208 613.077 461.181 612.788 461.163C612.499 461.127 612.237 461.109 612.002 461.109C611.298 461.109 610.747 461.271 610.35 461.596C609.97 461.921 609.7 462.4 609.537 463.032C609.374 463.646 609.293 464.396 609.293 465.281C609.293 466.058 609.347 466.708 609.456 467.232C609.564 467.737 609.718 468.144 609.916 468.451C610.133 468.74 610.386 468.948 610.675 469.074C610.964 469.2 611.28 469.264 611.623 469.264ZM511.02 519.717V500.399H514.596L514.623 501.266C514.876 501.104 515.192 500.932 515.571 500.752C515.969 500.571 516.393 500.417 516.845 500.291C517.296 500.164 517.739 500.101 518.172 500.101C519.997 500.101 521.306 500.688 522.101 501.862C522.896 503.018 523.293 504.779 523.293 507.145C523.293 508.843 523.094 510.216 522.697 511.264C522.3 512.311 521.658 513.079 520.773 513.567C519.906 514.054 518.759 514.298 517.333 514.298C516.881 514.298 516.393 514.262 515.87 514.19C515.346 514.117 514.93 514.045 514.623 513.973V519.717H511.02ZM516.764 511.291C517.486 511.291 518.055 511.137 518.47 510.83C518.886 510.523 519.175 510.062 519.337 509.448C519.518 508.816 519.608 508.021 519.608 507.064C519.608 505.583 519.401 504.563 518.985 504.003C518.588 503.425 518.01 503.136 517.251 503.136C516.962 503.136 516.655 503.172 516.33 503.244C516.005 503.316 515.689 503.407 515.382 503.515C515.075 503.623 514.822 503.732 514.623 503.84V511.101C514.84 511.119 515.147 511.155 515.544 511.209C515.96 511.264 516.366 511.291 516.764 511.291ZM529.306 514.298C527.897 514.298 526.832 513.946 526.109 513.241C525.405 512.519 525.053 511.435 525.053 509.99C525.053 508.979 525.233 508.193 525.594 507.633C525.956 507.055 526.488 506.64 527.193 506.387C527.915 506.116 528.791 505.953 529.821 505.899L533.126 505.601V504.788C533.126 504.138 532.964 503.687 532.639 503.434C532.313 503.163 531.835 503.027 531.203 503.027C530.697 503.027 530.11 503.045 529.442 503.082C528.791 503.118 528.141 503.163 527.491 503.217C526.859 503.271 526.308 503.325 525.838 503.38L525.73 500.833C526.199 500.724 526.759 500.616 527.41 500.508C528.078 500.381 528.773 500.282 529.496 500.21C530.218 500.137 530.887 500.101 531.501 500.101C532.657 500.101 533.623 500.246 534.4 500.535C535.176 500.824 535.763 501.302 536.161 501.971C536.558 502.621 536.757 503.506 536.757 504.626V510.83C536.793 511.083 536.928 511.282 537.163 511.426C537.398 511.553 537.669 511.643 537.976 511.697L537.895 514.19C537.461 514.208 537.037 514.217 536.621 514.217C536.206 514.217 535.854 514.19 535.565 514.135C535.149 514.081 534.788 513.973 534.481 513.81C534.192 513.648 533.957 513.476 533.777 513.296C533.488 513.422 533.099 513.567 532.612 513.729C532.124 513.892 531.591 514.027 531.013 514.135C530.453 514.244 529.884 514.298 529.306 514.298ZM530.173 511.616C530.516 511.616 530.878 511.58 531.257 511.507C531.636 511.435 531.988 511.354 532.313 511.264C532.657 511.155 532.928 511.056 533.126 510.966V507.85L530.363 508.094C529.767 508.148 529.333 508.329 529.062 508.636C528.809 508.925 528.683 509.34 528.683 509.882C528.683 510.424 528.8 510.848 529.035 511.155C529.288 511.462 529.667 511.616 530.173 511.616ZM539.938 514V500.399H543.542V501.998C543.849 501.763 544.228 501.519 544.68 501.266C545.131 500.995 545.619 500.752 546.143 500.535C546.685 500.3 547.199 500.146 547.687 500.074V503.569C547.217 503.641 546.721 503.768 546.197 503.948C545.673 504.111 545.176 504.292 544.707 504.49C544.255 504.689 543.867 504.87 543.542 505.032V514H539.938ZM554.338 514.325C553.344 514.325 552.54 514.181 551.926 513.892C551.312 513.603 550.87 513.106 550.599 512.402C550.346 511.679 550.219 510.677 550.219 509.394V503.407H548.621V500.399H550.219V496.796H553.823V500.399H557.291V503.407H553.823V508.446C553.823 509.15 553.85 509.701 553.904 510.099C553.976 510.496 554.121 510.776 554.338 510.938C554.554 511.101 554.888 511.182 555.34 511.182C555.466 511.182 555.656 511.173 555.909 511.155C556.162 511.137 556.415 511.119 556.668 511.101C556.92 511.083 557.128 511.065 557.291 511.047L557.399 513.946C556.966 514.018 556.442 514.099 555.828 514.19C555.232 514.28 554.735 514.325 554.338 514.325ZM559.306 514V500.399H562.909V514H559.306ZM559.306 498.232V495.143H562.936V498.232H559.306ZM571.42 514.298C569.921 514.298 568.729 514.045 567.844 513.539C566.977 513.034 566.354 512.266 565.974 511.237C565.595 510.207 565.406 508.916 565.406 507.362C565.406 505.682 565.64 504.31 566.11 503.244C566.598 502.178 567.302 501.393 568.223 500.887C569.144 500.363 570.282 500.101 571.637 500.101C573.642 500.101 575.15 500.607 576.161 501.618C577.191 502.63 577.706 504.228 577.706 506.414L577.543 508.419H569.036C569.054 509.43 569.262 510.189 569.659 510.695C570.056 511.2 570.743 511.453 571.718 511.453C572.278 511.453 572.892 511.444 573.561 511.426C574.229 511.39 574.888 511.354 575.538 511.318C576.207 511.282 576.776 511.246 577.245 511.209L577.326 513.729C576.875 513.801 576.306 513.883 575.62 513.973C574.933 514.063 574.22 514.135 573.479 514.19C572.757 514.262 572.07 514.298 571.42 514.298ZM569.036 506.116H574.102C574.102 504.888 573.904 504.03 573.506 503.542C573.127 503.054 572.504 502.811 571.637 502.811C570.788 502.811 570.138 503.063 569.686 503.569C569.253 504.075 569.036 504.924 569.036 506.116ZM585.006 514.298C584.41 514.298 583.768 514.262 583.082 514.19C582.414 514.135 581.782 514.063 581.185 513.973C580.608 513.883 580.111 513.792 579.695 513.702L579.804 511.02C580.273 511.074 580.797 511.137 581.375 511.209C581.971 511.282 582.549 511.345 583.109 511.399C583.687 511.435 584.157 511.453 584.518 511.453C585.06 511.453 585.502 511.408 585.845 511.318C586.207 511.227 586.478 511.083 586.658 510.884C586.839 510.668 586.929 510.361 586.929 509.963C586.929 509.656 586.848 509.421 586.685 509.259C586.541 509.096 586.252 508.961 585.818 508.852C585.403 508.726 584.789 508.599 583.976 508.473C582.965 508.329 582.125 508.121 581.456 507.85C580.806 507.579 580.328 507.182 580.02 506.658C579.713 506.116 579.56 505.384 579.56 504.463C579.56 503.343 579.804 502.467 580.291 501.835C580.779 501.203 581.429 500.761 582.242 500.508C583.055 500.237 583.94 500.101 584.897 500.101C585.529 500.101 586.18 500.137 586.848 500.21C587.516 500.264 588.148 500.336 588.744 500.426C589.34 500.517 589.837 500.607 590.235 500.697L590.126 503.434C589.675 503.361 589.151 503.298 588.555 503.244C587.959 503.172 587.363 503.118 586.767 503.082C586.189 503.045 585.701 503.027 585.304 503.027C584.888 503.027 584.518 503.072 584.193 503.163C583.868 503.235 583.615 503.361 583.434 503.542C583.272 503.723 583.19 503.994 583.19 504.355C583.19 504.608 583.263 504.815 583.407 504.978C583.552 505.141 583.823 505.285 584.22 505.412C584.635 505.52 585.231 505.628 586.008 505.737C587.128 505.899 588.022 506.125 588.69 506.414C589.359 506.703 589.837 507.118 590.126 507.66C590.433 508.202 590.587 508.934 590.587 509.855C590.587 511.498 590.099 512.654 589.124 513.323C588.166 513.973 586.794 514.298 585.006 514.298Z" fill="#033F38"/>
<rect x="228.484" y="511.155" width="198.682" height="198.682" rx="99.3411" fill="#FCB03F"/>
<path d="M271.325 620L276.039 601.495H282.569L287.256 620H283.517L282.487 616.261H276.012L275.037 620H271.325ZM276.608 613.254H281.946L279.859 604.53H278.722L276.608 613.254ZM293.658 620.298C293.008 620.298 292.412 620.217 291.87 620.054C291.328 619.91 290.849 619.675 290.434 619.35C290.037 619.007 289.693 618.564 289.404 618.022C289.133 617.48 288.926 616.821 288.781 616.044C288.637 615.25 288.565 614.329 288.565 613.281C288.565 611.728 288.754 610.418 289.133 609.352C289.531 608.287 290.154 607.483 291.003 606.941C291.852 606.381 292.981 606.101 294.39 606.101C294.805 606.101 295.293 606.137 295.853 606.21C296.431 606.264 296.891 606.318 297.234 606.372V600.845H300.865V620H297.288L297.261 619.214C297.009 619.359 296.674 619.521 296.259 619.702C295.862 619.865 295.437 620 294.986 620.108C294.534 620.235 294.092 620.298 293.658 620.298ZM294.579 617.264C294.904 617.264 295.229 617.227 295.555 617.155C295.898 617.083 296.214 617.002 296.503 616.911C296.81 616.803 297.054 616.704 297.234 616.613V609.325C297.072 609.289 296.855 609.262 296.584 609.244C296.313 609.208 296.033 609.181 295.744 609.163C295.455 609.127 295.193 609.109 294.958 609.109C294.254 609.109 293.703 609.271 293.306 609.596C292.927 609.921 292.656 610.4 292.493 611.032C292.33 611.646 292.249 612.396 292.249 613.281C292.249 614.058 292.303 614.708 292.412 615.232C292.52 615.737 292.674 616.144 292.872 616.451C293.089 616.74 293.342 616.948 293.631 617.074C293.92 617.2 294.236 617.264 294.579 617.264ZM305.983 620L302.759 606.399H306.633L308.909 616.938H309.695L312.025 606.399H315.683L312.458 620H305.983ZM323.427 620.298C321.891 620.298 320.654 620.045 319.715 619.539C318.794 619.034 318.125 618.257 317.71 617.209C317.295 616.144 317.087 614.771 317.087 613.091C317.087 611.466 317.304 610.147 317.737 609.136C318.171 608.106 318.857 607.348 319.796 606.86C320.735 606.354 321.946 606.101 323.427 606.101C324.926 606.101 326.136 606.354 327.057 606.86C327.996 607.348 328.683 608.106 329.116 609.136C329.568 610.147 329.794 611.466 329.794 613.091C329.794 614.771 329.586 616.144 329.17 617.209C328.755 618.257 328.078 619.034 327.138 619.539C326.217 620.045 324.98 620.298 323.427 620.298ZM323.427 617.318C324.185 617.318 324.754 617.182 325.134 616.911C325.513 616.622 325.766 616.171 325.892 615.557C326.037 614.925 326.109 614.103 326.109 613.091C326.109 612.098 326.028 611.312 325.865 610.734C325.703 610.138 325.432 609.714 325.052 609.461C324.673 609.208 324.131 609.082 323.427 609.082C322.74 609.082 322.198 609.208 321.801 609.461C321.422 609.714 321.151 610.138 320.988 610.734C320.826 611.312 320.744 612.098 320.744 613.091C320.744 614.103 320.808 614.925 320.934 615.557C321.079 616.171 321.341 616.622 321.72 616.911C322.099 617.182 322.668 617.318 323.427 617.318ZM337.813 620.298C336.26 620.298 335.04 620.063 334.155 619.594C333.288 619.106 332.674 618.329 332.313 617.264C331.97 616.198 331.798 614.798 331.798 613.064C331.798 611.348 331.997 609.985 332.394 608.973C332.792 607.944 333.433 607.212 334.318 606.779C335.221 606.327 336.395 606.101 337.84 606.101C338.219 606.101 338.662 606.128 339.168 606.183C339.673 606.237 340.179 606.309 340.685 606.399C341.209 606.472 341.651 606.544 342.012 606.616L341.877 609.515C341.534 609.479 341.145 609.452 340.712 609.434C340.278 609.398 339.854 609.371 339.438 609.352C339.041 609.316 338.716 609.298 338.463 609.298C337.686 609.298 337.072 609.425 336.621 609.678C336.187 609.912 335.88 610.31 335.7 610.87C335.537 611.412 335.456 612.143 335.456 613.064C335.456 614.058 335.537 614.852 335.7 615.448C335.862 616.044 336.151 616.469 336.567 616.722C337 616.975 337.632 617.101 338.463 617.101C338.716 617.101 339.05 617.092 339.466 617.074C339.881 617.038 340.305 617.002 340.739 616.966C341.19 616.929 341.588 616.902 341.931 616.884L342.039 619.783C341.678 619.856 341.245 619.928 340.739 620C340.233 620.09 339.718 620.163 339.195 620.217C338.689 620.271 338.228 620.298 337.813 620.298ZM347.926 620.298C346.517 620.298 345.451 619.946 344.729 619.241C344.024 618.519 343.672 617.435 343.672 615.99C343.672 614.979 343.853 614.193 344.214 613.633C344.575 613.055 345.108 612.64 345.813 612.387C346.535 612.116 347.411 611.953 348.441 611.899L351.746 611.601V610.788C351.746 610.138 351.583 609.687 351.258 609.434C350.933 609.163 350.454 609.027 349.822 609.027C349.317 609.027 348.73 609.045 348.061 609.082C347.411 609.118 346.761 609.163 346.111 609.217C345.478 609.271 344.927 609.325 344.458 609.38L344.349 606.833C344.819 606.724 345.379 606.616 346.029 606.508C346.698 606.381 347.393 606.282 348.115 606.21C348.838 606.137 349.506 606.101 350.12 606.101C351.276 606.101 352.243 606.246 353.019 606.535C353.796 606.824 354.383 607.302 354.78 607.971C355.178 608.621 355.376 609.506 355.376 610.626V616.83C355.412 617.083 355.548 617.282 355.783 617.426C356.018 617.553 356.288 617.643 356.596 617.697L356.514 620.19C356.081 620.208 355.656 620.217 355.241 620.217C354.825 620.217 354.473 620.19 354.184 620.135C353.769 620.081 353.408 619.973 353.101 619.81C352.812 619.648 352.577 619.476 352.396 619.296C352.107 619.422 351.719 619.567 351.231 619.729C350.743 619.892 350.211 620.027 349.633 620.135C349.073 620.244 348.504 620.298 347.926 620.298ZM348.793 617.616C349.136 617.616 349.497 617.58 349.876 617.507C350.256 617.435 350.608 617.354 350.933 617.264C351.276 617.155 351.547 617.056 351.746 616.966V613.85L348.982 614.094C348.386 614.148 347.953 614.329 347.682 614.636C347.429 614.925 347.303 615.34 347.303 615.882C347.303 616.424 347.42 616.848 347.655 617.155C347.908 617.462 348.287 617.616 348.793 617.616ZM364.112 620.298C362.559 620.298 361.34 620.063 360.455 619.594C359.588 619.106 358.974 618.329 358.612 617.264C358.269 616.198 358.098 614.798 358.098 613.064C358.098 611.348 358.296 609.985 358.694 608.973C359.091 607.944 359.732 607.212 360.617 606.779C361.52 606.327 362.694 606.101 364.139 606.101C364.519 606.101 364.961 606.128 365.467 606.183C365.973 606.237 366.478 606.309 366.984 606.399C367.508 606.472 367.95 606.544 368.312 606.616L368.176 609.515C367.833 609.479 367.445 609.452 367.011 609.434C366.578 609.398 366.153 609.371 365.738 609.352C365.34 609.316 365.015 609.298 364.762 609.298C363.986 609.298 363.372 609.425 362.92 609.678C362.487 609.912 362.18 610.31 361.999 610.87C361.836 611.412 361.755 612.143 361.755 613.064C361.755 614.058 361.836 614.852 361.999 615.448C362.161 616.044 362.45 616.469 362.866 616.722C363.299 616.975 363.932 617.101 364.762 617.101C365.015 617.101 365.349 617.092 365.765 617.074C366.18 617.038 366.605 617.002 367.038 616.966C367.49 616.929 367.887 616.902 368.23 616.884L368.339 619.783C367.977 619.856 367.544 619.928 367.038 620C366.532 620.09 366.018 620.163 365.494 620.217C364.988 620.271 364.528 620.298 364.112 620.298ZM374.008 625.717L375.742 620H372.843L369.619 606.399H373.385L375.796 616.938H376.501L378.912 606.399H382.543L377.856 625.717H374.008Z" fill="#033F38"/>
<rect y="382.012" width="198.682" height="198.682" rx="99.3411" fill="#FCB03F"/>
<path d="M53.7069 491V472.495H65.6549V475.638H57.4457V481.219H64.1648V484.362H57.4457V491H53.7069ZM67.8065 491V471.845H71.4098V491H67.8065ZM79.9977 491.298C78.4985 491.298 77.3064 491.045 76.4214 490.539C75.5544 490.034 74.9313 489.266 74.552 488.237C74.1727 487.207 73.983 485.916 73.983 484.362C73.983 482.682 74.2178 481.31 74.6874 480.244C75.1751 479.178 75.8795 478.393 76.8007 477.887C77.7219 477.363 78.8598 477.101 80.2144 477.101C82.2193 477.101 83.7275 477.607 84.739 478.618C85.7685 479.63 86.2833 481.228 86.2833 483.414L86.1207 485.419H77.6135C77.6316 486.43 77.8393 487.189 78.2366 487.695C78.634 488.2 79.3203 488.453 80.2957 488.453C80.8556 488.453 81.4697 488.444 82.138 488.426C82.8063 488.39 83.4656 488.354 84.1158 488.318C84.7841 488.282 85.3531 488.246 85.8227 488.209L85.904 490.729C85.4524 490.801 84.8835 490.883 84.1971 490.973C83.5107 491.063 82.7973 491.135 82.0567 491.19C81.3343 491.262 80.6479 491.298 79.9977 491.298ZM77.6135 483.116H82.6799C82.6799 481.888 82.4812 481.03 82.0838 480.542C81.7045 480.054 81.0814 479.811 80.2144 479.811C79.3655 479.811 78.7153 480.063 78.2637 480.569C77.8302 481.075 77.6135 481.924 77.6135 483.116ZM87.5414 491L91.1719 484.227L87.5414 477.399H91.4428L93.8541 482.113L96.2924 477.399H99.9771L96.4279 484.145L99.95 491H96.0215L93.6102 486.448L91.2802 491H87.5414ZM101.829 491V477.399H105.432V491H101.829ZM101.829 475.232V472.143H105.459V475.232H101.829ZM113.862 491.298C113.411 491.298 112.86 491.28 112.209 491.244C111.559 491.208 110.891 491.154 110.204 491.081C109.536 491.009 108.94 490.946 108.416 490.892V471.845H112.047V477.833C112.462 477.67 113.004 477.508 113.672 477.345C114.341 477.183 114.964 477.101 115.542 477.101C116.806 477.101 117.809 477.363 118.549 477.887C119.308 478.393 119.85 479.151 120.175 480.163C120.5 481.174 120.662 482.448 120.662 483.983C120.662 485.789 120.455 487.234 120.039 488.318C119.642 489.383 118.947 490.151 117.953 490.621C116.96 491.072 115.596 491.298 113.862 491.298ZM113.889 488.264C114.774 488.264 115.433 488.11 115.867 487.803C116.3 487.478 116.589 486.999 116.734 486.367C116.896 485.735 116.978 484.958 116.978 484.037C116.978 483.098 116.906 482.348 116.761 481.788C116.617 481.21 116.373 480.795 116.029 480.542C115.704 480.271 115.244 480.136 114.648 480.136C114.196 480.136 113.727 480.199 113.239 480.325C112.751 480.452 112.354 480.569 112.047 480.678V488.155C112.318 488.173 112.634 488.2 112.995 488.237C113.356 488.255 113.654 488.264 113.889 488.264ZM123.262 491V471.845H126.866V491H123.262ZM135.454 491.298C133.955 491.298 132.762 491.045 131.877 490.539C131.01 490.034 130.387 489.266 130.008 488.237C129.629 487.207 129.439 485.916 129.439 484.362C129.439 482.682 129.674 481.31 130.143 480.244C130.631 479.178 131.336 478.393 132.257 477.887C133.178 477.363 134.316 477.101 135.67 477.101C137.675 477.101 139.184 477.607 140.195 478.618C141.225 479.63 141.739 481.228 141.739 483.414L141.577 485.419H133.07C133.088 486.43 133.295 487.189 133.693 487.695C134.09 488.2 134.776 488.453 135.752 488.453C136.312 488.453 136.926 488.444 137.594 488.426C138.262 488.39 138.922 488.354 139.572 488.318C140.24 488.282 140.809 488.246 141.279 488.209L141.36 490.729C140.908 490.801 140.339 490.883 139.653 490.973C138.967 491.063 138.253 491.135 137.513 491.19C136.79 491.262 136.104 491.298 135.454 491.298ZM133.07 483.116H138.136C138.136 481.888 137.937 481.03 137.54 480.542C137.161 480.054 136.537 479.811 135.67 479.811C134.822 479.811 134.171 480.063 133.72 480.569C133.286 481.075 133.07 481.924 133.07 483.116Z" fill="#033F38"/>
<rect x="7.22461" y="125.531" width="198.682" height="198.682" rx="99.3411" fill="#FCB03F"/>
<path d="M48.6944 234.298C48.0081 234.298 47.2585 234.253 46.4457 234.163C45.6329 234.09 44.8382 234 44.0615 233.892C43.3029 233.765 42.6527 233.657 42.1108 233.567L42.3547 230.613C42.9146 230.686 43.5648 230.767 44.3053 230.857C45.0459 230.929 45.7774 230.993 46.4999 231.047C47.2404 231.101 47.8816 231.128 48.4235 231.128C49.453 231.128 50.2026 230.929 50.6722 230.532C51.1418 230.117 51.3766 229.475 51.3766 228.608C51.3766 228.139 51.2773 227.769 51.0786 227.498C50.898 227.209 50.5638 226.983 50.0762 226.82C49.5885 226.64 48.9112 226.468 48.0442 226.306C46.5992 226.035 45.4252 225.701 44.5221 225.303C43.6371 224.906 42.9868 224.346 42.5714 223.623C42.174 222.901 41.9753 221.935 41.9753 220.724C41.9753 219.316 42.2372 218.214 42.761 217.419C43.2848 216.606 44.0344 216.028 45.0098 215.685C45.9851 215.342 47.1321 215.17 48.4506 215.17C49.0466 215.17 49.724 215.206 50.4826 215.279C51.2592 215.333 52.0178 215.405 52.7584 215.495C53.517 215.586 54.1582 215.685 54.682 215.793L54.5194 218.774C53.9776 218.701 53.3454 218.638 52.6229 218.584C51.9185 218.512 51.2141 218.449 50.5097 218.394C49.8233 218.34 49.2363 218.313 48.7486 218.313C47.7191 218.313 46.9605 218.476 46.4728 218.801C45.9851 219.126 45.7413 219.65 45.7413 220.372C45.7413 220.914 45.8497 221.329 46.0664 221.618C46.2831 221.907 46.6444 222.142 47.1501 222.323C47.6739 222.504 48.3874 222.693 49.2905 222.892C50.3561 223.127 51.2592 223.38 51.9998 223.65C52.7584 223.921 53.3635 224.247 53.815 224.626C54.2846 225.005 54.6278 225.493 54.8445 226.089C55.0613 226.685 55.1697 227.434 55.1697 228.338C55.1697 229.783 54.9078 230.948 54.384 231.833C53.8782 232.7 53.1377 233.332 52.1623 233.729C51.205 234.108 50.0491 234.298 48.6944 234.298ZM61.0939 234.298C59.6851 234.298 58.6194 233.946 57.8969 233.241C57.1925 232.519 56.8403 231.435 56.8403 229.99C56.8403 228.979 57.0209 228.193 57.3822 227.633C57.7434 227.055 58.2762 226.64 58.9807 226.387C59.7031 226.116 60.5792 225.953 61.6087 225.899L64.914 225.601V224.788C64.914 224.138 64.7515 223.687 64.4264 223.434C64.1012 223.163 63.6226 223.027 62.9904 223.027C62.4847 223.027 61.8977 223.045 61.2294 223.082C60.5792 223.118 59.9289 223.163 59.2787 223.217C58.6465 223.271 58.0956 223.325 57.626 223.38L57.5176 220.833C57.9873 220.724 58.5472 220.616 59.1974 220.508C59.8657 220.381 60.5611 220.282 61.2836 220.21C62.0061 220.137 62.6743 220.101 63.2885 220.101C64.4444 220.101 65.4107 220.246 66.1874 220.535C66.9641 220.824 67.5511 221.302 67.9485 221.971C68.3458 222.621 68.5445 223.506 68.5445 224.626V230.83C68.5806 231.083 68.7161 231.282 68.9509 231.426C69.1857 231.553 69.4566 231.643 69.7637 231.697L69.6824 234.19C69.2489 234.208 68.8245 234.217 68.409 234.217C67.9936 234.217 67.6414 234.19 67.3524 234.135C66.937 234.081 66.5757 233.973 66.2687 233.81C65.9797 233.648 65.7449 233.476 65.5643 233.296C65.2753 233.422 64.8869 233.567 64.3993 233.729C63.9116 233.892 63.3788 234.027 62.8008 234.135C62.2409 234.244 61.6719 234.298 61.0939 234.298ZM61.9609 231.616C62.3041 231.616 62.6653 231.58 63.0446 231.507C63.4239 231.435 63.7761 231.354 64.1012 231.264C64.4444 231.155 64.7154 231.056 64.914 230.966V227.85L62.1506 228.094C61.5545 228.148 61.121 228.329 60.8501 228.636C60.5972 228.925 60.4708 229.34 60.4708 229.882C60.4708 230.424 60.5882 230.848 60.823 231.155C61.0759 231.462 61.4552 231.616 61.9609 231.616ZM72.2681 234V223.407H70.9134V220.399H72.2681V219.614C72.2681 218.331 72.3855 217.32 72.6203 216.579C72.8732 215.839 73.2976 215.315 73.8937 215.008C74.4897 214.701 75.2935 214.547 76.305 214.547C76.594 214.547 76.9371 214.565 77.3345 214.601C77.7499 214.619 78.1473 214.647 78.5266 214.683C78.9059 214.719 79.1949 214.755 79.3936 214.791L79.3665 217.555C79.0775 217.555 78.7524 217.555 78.3911 217.555C78.0479 217.536 77.7499 217.527 77.4971 217.527C77.0997 217.527 76.7746 217.591 76.5217 217.717C76.2869 217.844 76.1153 218.051 76.0069 218.34C75.9166 218.629 75.8715 219.045 75.8715 219.587V220.399H79.1226V223.407H75.8715V234H72.2681ZM86.4864 234.298C84.9873 234.298 83.7952 234.045 82.9102 233.539C82.0432 233.034 81.42 232.266 81.0407 231.237C80.6614 230.207 80.4718 228.916 80.4718 227.362C80.4718 225.682 80.7066 224.31 81.1762 223.244C81.6639 222.178 82.3683 221.393 83.2895 220.887C84.2106 220.363 85.3485 220.101 86.7032 220.101C88.7081 220.101 90.2162 220.607 91.2277 221.618C92.2573 222.63 92.772 224.228 92.772 226.414L92.6095 228.419H84.1023C84.1203 229.43 84.328 230.189 84.7254 230.695C85.1228 231.2 85.8091 231.453 86.7845 231.453C87.3444 231.453 87.9585 231.444 88.6268 231.426C89.2951 231.39 89.9543 231.354 90.6046 231.318C91.2729 231.282 91.8418 231.246 92.3114 231.209L92.3927 233.729C91.9412 233.801 91.3722 233.883 90.6859 233.973C89.9995 234.063 89.2861 234.135 88.5455 234.19C87.823 234.262 87.1367 234.298 86.4864 234.298ZM84.1023 226.116H89.1686C89.1686 224.888 88.97 224.03 88.5726 223.542C88.1933 223.054 87.5702 222.811 86.7032 222.811C85.8543 222.811 85.204 223.063 84.7525 223.569C84.319 224.075 84.1023 224.924 84.1023 226.116ZM105.972 234.298C105.376 234.298 104.735 234.262 104.048 234.19C103.38 234.135 102.748 234.063 102.152 233.973C101.574 233.883 101.077 233.792 100.662 233.702L100.77 231.02C101.24 231.074 101.764 231.137 102.342 231.209C102.938 231.282 103.516 231.345 104.076 231.399C104.654 231.435 105.123 231.453 105.484 231.453C106.026 231.453 106.469 231.408 106.812 231.318C107.173 231.227 107.444 231.083 107.625 230.884C107.805 230.668 107.896 230.361 107.896 229.963C107.896 229.656 107.814 229.421 107.652 229.259C107.507 229.096 107.218 228.961 106.785 228.852C106.369 228.726 105.755 228.599 104.942 228.473C103.931 228.329 103.091 228.121 102.423 227.85C101.773 227.579 101.294 227.182 100.987 226.658C100.68 226.116 100.526 225.384 100.526 224.463C100.526 223.343 100.77 222.467 101.258 221.835C101.746 221.203 102.396 220.761 103.209 220.508C104.021 220.237 104.906 220.101 105.864 220.101C106.496 220.101 107.146 220.137 107.814 220.21C108.483 220.264 109.115 220.336 109.711 220.426C110.307 220.517 110.804 220.607 111.201 220.697L111.093 223.434C110.641 223.361 110.117 223.298 109.521 223.244C108.925 223.172 108.329 223.118 107.733 223.082C107.155 223.045 106.667 223.027 106.27 223.027C105.855 223.027 105.484 223.072 105.159 223.163C104.834 223.235 104.581 223.361 104.401 223.542C104.238 223.723 104.157 223.994 104.157 224.355C104.157 224.608 104.229 224.815 104.374 224.978C104.518 225.141 104.789 225.285 105.186 225.412C105.602 225.52 106.198 225.628 106.974 225.737C108.094 225.899 108.988 226.125 109.657 226.414C110.325 226.703 110.804 227.118 111.093 227.66C111.4 228.202 111.553 228.934 111.553 229.855C111.553 231.498 111.066 232.654 110.09 233.323C109.133 233.973 107.76 234.298 105.972 234.298ZM113.927 239.717V220.399H117.503L117.53 221.266C117.783 221.104 118.099 220.932 118.478 220.752C118.876 220.571 119.3 220.417 119.752 220.291C120.203 220.164 120.646 220.101 121.079 220.101C122.904 220.101 124.213 220.688 125.008 221.862C125.803 223.018 126.2 224.779 126.2 227.145C126.2 228.843 126.001 230.216 125.604 231.264C125.207 232.311 124.565 233.079 123.68 233.567C122.813 234.054 121.666 234.298 120.239 234.298C119.788 234.298 119.3 234.262 118.776 234.19C118.253 234.117 117.837 234.045 117.53 233.973V239.717H113.927ZM119.671 231.291C120.393 231.291 120.962 231.137 121.377 230.83C121.793 230.523 122.082 230.062 122.244 229.448C122.425 228.816 122.515 228.021 122.515 227.064C122.515 225.583 122.308 224.563 121.892 224.003C121.495 223.425 120.917 223.136 120.158 223.136C119.869 223.136 119.562 223.172 119.237 223.244C118.912 223.316 118.596 223.407 118.289 223.515C117.982 223.623 117.729 223.732 117.53 223.84V231.101C117.747 231.119 118.054 231.155 118.451 231.209C118.867 231.264 119.273 231.291 119.671 231.291ZM132.213 234.298C130.804 234.298 129.739 233.946 129.016 233.241C128.312 232.519 127.96 231.435 127.96 229.99C127.96 228.979 128.14 228.193 128.501 227.633C128.863 227.055 129.395 226.64 130.1 226.387C130.822 226.116 131.698 225.953 132.728 225.899L136.033 225.601V224.788C136.033 224.138 135.871 223.687 135.546 223.434C135.22 223.163 134.742 223.027 134.11 223.027C133.604 223.027 133.017 223.045 132.349 223.082C131.698 223.118 131.048 223.163 130.398 223.217C129.766 223.271 129.215 223.325 128.745 223.38L128.637 220.833C129.106 220.724 129.666 220.616 130.317 220.508C130.985 220.381 131.68 220.282 132.403 220.21C133.125 220.137 133.794 220.101 134.408 220.101C135.564 220.101 136.53 220.246 137.307 220.535C138.083 220.824 138.67 221.302 139.068 221.971C139.465 222.621 139.664 223.506 139.664 224.626V230.83C139.7 231.083 139.835 231.282 140.07 231.426C140.305 231.553 140.576 231.643 140.883 231.697L140.802 234.19C140.368 234.208 139.944 234.217 139.528 234.217C139.113 234.217 138.761 234.19 138.472 234.135C138.056 234.081 137.695 233.973 137.388 233.81C137.099 233.648 136.864 233.476 136.683 233.296C136.394 233.422 136.006 233.567 135.518 233.729C135.031 233.892 134.498 234.027 133.92 234.135C133.36 234.244 132.791 234.298 132.213 234.298ZM133.08 231.616C133.423 231.616 133.785 231.58 134.164 231.507C134.543 231.435 134.895 231.354 135.22 231.264C135.564 231.155 135.835 231.056 136.033 230.966V227.85L133.27 228.094C132.674 228.148 132.24 228.329 131.969 228.636C131.716 228.925 131.59 229.34 131.59 229.882C131.59 230.424 131.707 230.848 131.942 231.155C132.195 231.462 132.574 231.616 133.08 231.616ZM148.399 234.298C146.846 234.298 145.627 234.063 144.742 233.594C143.875 233.106 143.261 232.329 142.9 231.264C142.556 230.198 142.385 228.798 142.385 227.064C142.385 225.348 142.584 223.985 142.981 222.973C143.378 221.944 144.019 221.212 144.904 220.779C145.808 220.327 146.982 220.101 148.427 220.101C148.806 220.101 149.248 220.128 149.754 220.183C150.26 220.237 150.766 220.309 151.271 220.399C151.795 220.472 152.238 220.544 152.599 220.616L152.463 223.515C152.12 223.479 151.732 223.452 151.298 223.434C150.865 223.398 150.441 223.371 150.025 223.352C149.628 223.316 149.303 223.298 149.05 223.298C148.273 223.298 147.659 223.425 147.207 223.678C146.774 223.912 146.467 224.31 146.286 224.87C146.124 225.412 146.042 226.143 146.042 227.064C146.042 228.058 146.124 228.852 146.286 229.448C146.449 230.044 146.738 230.469 147.153 230.722C147.587 230.975 148.219 231.101 149.05 231.101C149.303 231.101 149.637 231.092 150.052 231.074C150.468 231.038 150.892 231.002 151.326 230.966C151.777 230.929 152.174 230.902 152.518 230.884L152.626 233.783C152.265 233.856 151.831 233.928 151.326 234C150.82 234.09 150.305 234.163 149.781 234.217C149.276 234.271 148.815 234.298 148.399 234.298ZM160.463 234.298C158.964 234.298 157.772 234.045 156.887 233.539C156.02 233.034 155.397 232.266 155.017 231.237C154.638 230.207 154.448 228.916 154.448 227.362C154.448 225.682 154.683 224.31 155.153 223.244C155.641 222.178 156.345 221.393 157.266 220.887C158.187 220.363 159.325 220.101 160.68 220.101C162.685 220.101 164.193 220.607 165.204 221.618C166.234 222.63 166.749 224.228 166.749 226.414L166.586 228.419H158.079C158.097 229.43 158.305 230.189 158.702 230.695C159.099 231.2 159.786 231.453 160.761 231.453C161.321 231.453 161.935 231.444 162.603 231.426C163.272 231.39 163.931 231.354 164.581 231.318C165.25 231.282 165.818 231.246 166.288 231.209L166.369 233.729C165.918 233.801 165.349 233.883 164.663 233.973C163.976 234.063 163.263 234.135 162.522 234.19C161.8 234.262 161.113 234.298 160.463 234.298ZM158.079 226.116H163.145C163.145 224.888 162.947 224.03 162.549 223.542C162.17 223.054 161.547 222.811 160.68 222.811C159.831 222.811 159.181 223.063 158.729 223.569C158.296 224.075 158.079 224.924 158.079 226.116Z" fill="#033F38"/>
<rect x="449.744" y="125.531" width="198.682" height="198.682" rx="99.3411" fill="#FCB03F"/>
<path d="M502.024 234.489V215.984H509.096C510.54 215.984 511.751 216.192 512.726 216.607C513.719 217.005 514.514 217.592 515.11 218.368C515.706 219.145 516.131 220.084 516.384 221.186C516.654 222.288 516.79 223.543 516.79 224.952C516.79 226.379 516.664 227.67 516.411 228.826C516.176 229.982 515.769 230.985 515.191 231.834C514.613 232.683 513.837 233.342 512.861 233.811C511.886 234.263 510.667 234.489 509.204 234.489H502.024ZM505.763 231.346H508.987C509.836 231.346 510.522 231.183 511.046 230.858C511.57 230.533 511.967 230.082 512.238 229.504C512.527 228.908 512.717 228.23 512.807 227.472C512.916 226.695 512.97 225.855 512.97 224.952C512.97 224.085 512.916 223.299 512.807 222.595C512.699 221.872 512.5 221.258 512.211 220.753C511.94 220.229 511.543 219.831 511.019 219.561C510.513 219.272 509.836 219.127 508.987 219.127H505.763V231.346ZM519.376 234.489V220.888H522.979V234.489H519.376ZM519.376 218.721V215.632H523.006V218.721H519.376ZM528.13 234.489L524.906 220.888H528.781L531.057 231.427H531.842L534.172 220.888H537.83L534.606 234.489H528.13ZM545.222 234.787C543.723 234.787 542.531 234.534 541.645 234.028C540.778 233.522 540.155 232.755 539.776 231.725C539.397 230.696 539.207 229.404 539.207 227.851C539.207 226.171 539.442 224.798 539.912 223.733C540.399 222.667 541.104 221.881 542.025 221.376C542.946 220.852 544.084 220.59 545.438 220.59C547.443 220.59 548.952 221.096 549.963 222.107C550.993 223.119 551.507 224.717 551.507 226.903L551.345 228.908H542.838C542.856 229.919 543.063 230.678 543.461 231.183C543.858 231.689 544.544 231.942 545.52 231.942C546.08 231.942 546.694 231.933 547.362 231.915C548.03 231.879 548.69 231.843 549.34 231.807C550.008 231.77 550.577 231.734 551.047 231.698L551.128 234.218C550.676 234.29 550.108 234.371 549.421 234.462C548.735 234.552 548.021 234.624 547.281 234.678C546.558 234.751 545.872 234.787 545.222 234.787ZM542.838 226.605H547.904C547.904 225.376 547.705 224.519 547.308 224.031C546.929 223.543 546.305 223.299 545.438 223.299C544.59 223.299 543.939 223.552 543.488 224.058C543.054 224.564 542.838 225.413 542.838 226.605ZM553.903 234.489V220.888H557.507V222.487C557.814 222.252 558.193 222.008 558.645 221.755C559.096 221.484 559.584 221.24 560.108 221.024C560.65 220.789 561.164 220.635 561.652 220.563V224.058C561.182 224.13 560.686 224.257 560.162 224.437C559.638 224.6 559.141 224.78 558.672 224.979C558.22 225.178 557.832 225.358 557.507 225.521V234.489H553.903ZM568.438 234.787C567.842 234.787 567.201 234.751 566.514 234.678C565.846 234.624 565.214 234.552 564.618 234.462C564.04 234.371 563.543 234.281 563.128 234.191L563.236 231.509C563.706 231.563 564.229 231.626 564.807 231.698C565.404 231.77 565.981 231.834 566.541 231.888C567.119 231.924 567.589 231.942 567.95 231.942C568.492 231.942 568.935 231.897 569.278 231.807C569.639 231.716 569.91 231.572 570.091 231.373C570.271 231.156 570.362 230.849 570.362 230.452C570.362 230.145 570.28 229.91 570.118 229.747C569.973 229.585 569.684 229.449 569.251 229.341C568.835 229.215 568.221 229.088 567.408 228.962C566.397 228.817 565.557 228.61 564.889 228.339C564.239 228.068 563.76 227.67 563.453 227.147C563.146 226.605 562.992 225.873 562.992 224.952C562.992 223.832 563.236 222.956 563.724 222.324C564.211 221.692 564.862 221.249 565.674 220.996C566.487 220.726 567.372 220.59 568.33 220.59C568.962 220.59 569.612 220.626 570.28 220.698C570.949 220.753 571.581 220.825 572.177 220.915C572.773 221.005 573.27 221.096 573.667 221.186L573.559 223.922C573.107 223.85 572.583 223.787 571.987 223.733C571.391 223.661 570.795 223.606 570.199 223.57C569.621 223.534 569.133 223.516 568.736 223.516C568.321 223.516 567.95 223.561 567.625 223.652C567.3 223.724 567.047 223.85 566.867 224.031C566.704 224.211 566.623 224.482 566.623 224.844C566.623 225.097 566.695 225.304 566.839 225.467C566.984 225.629 567.255 225.774 567.652 225.9C568.068 226.009 568.664 226.117 569.44 226.225C570.56 226.388 571.454 226.614 572.123 226.903C572.791 227.192 573.27 227.607 573.559 228.149C573.866 228.691 574.019 229.422 574.019 230.344C574.019 231.987 573.531 233.143 572.556 233.811C571.599 234.462 570.226 234.787 568.438 234.787ZM581.893 234.787C580.393 234.787 579.201 234.534 578.316 234.028C577.449 233.522 576.826 232.755 576.447 231.725C576.068 230.696 575.878 229.404 575.878 227.851C575.878 226.171 576.113 224.798 576.582 223.733C577.07 222.667 577.774 221.881 578.696 221.376C579.617 220.852 580.755 220.59 582.109 220.59C584.114 220.59 585.622 221.096 586.634 222.107C587.663 223.119 588.178 224.717 588.178 226.903L588.016 228.908H579.508C579.526 229.919 579.734 230.678 580.132 231.183C580.529 231.689 581.215 231.942 582.191 231.942C582.751 231.942 583.365 231.933 584.033 231.915C584.701 231.879 585.36 231.843 586.011 231.807C586.679 231.77 587.248 231.734 587.718 231.698L587.799 234.218C587.347 234.29 586.778 234.371 586.092 234.462C585.406 234.552 584.692 234.624 583.952 234.678C583.229 234.751 582.543 234.787 581.893 234.787ZM579.508 226.605H584.575C584.575 225.376 584.376 224.519 583.979 224.031C583.599 223.543 582.976 223.299 582.109 223.299C581.26 223.299 580.61 223.552 580.159 224.058C579.725 224.564 579.508 225.413 579.508 226.605Z" fill="#033F38"/>
</svg>
