<svg width="84" height="84" viewBox="0 0 84 84" fill="none" xmlns="http://www.w3.org/2000/svg">
<path d="M41.6635 0C18.6901 0 0 18.5417 0 41.3326C0 64.1234 18.6901 82.6652 41.6635 82.6652C48.1431 82.6647 54.5348 81.1657 60.3391 78.2854C65.2588 81.0457 72.1197 84 78.9464 84C79.8657 84.0009 80.7843 83.9456 81.6969 83.8342C82.2664 83.7638 82.7971 83.5088 83.2079 83.1081C83.6187 82.7074 83.8868 82.1831 83.9713 81.6155C84.0558 81.048 83.952 80.4683 83.6758 79.9654C83.3995 79.4624 82.9661 79.0638 82.4418 78.8306C82.2206 78.727 76.78 76.1005 73.8765 67.5326C79.9819 60.1664 83.3243 50.9 83.3269 41.3326C83.3269 18.5417 64.6368 0 41.6635 0ZM81.375 81.229C80.5692 81.3275 79.7581 81.3762 78.9464 81.375C72.1374 81.375 65.1608 78.1118 60.4042 75.2928C54.6529 78.4183 48.2092 80.0506 41.6635 80.0403C20.1031 80.0403 2.625 62.7102 2.625 41.3326C2.625 19.9549 20.1031 2.625 41.6635 2.625C63.2238 2.625 80.7019 19.955 80.7019 41.3326C80.7077 50.7748 77.2313 59.8876 70.9379 66.9267C74.1141 77.9996 81.375 81.229 81.375 81.229Z" fill="#033F38"/>
<path d="M46.9927 55.2545C45.7691 56.435 44.1351 57.0944 42.4349 57.0938C40.7347 57.0932 39.1011 56.4326 37.8783 55.2513L25.6319 43.4426C25.0112 42.8445 24.5144 42.1299 24.1699 41.3397C23.8254 40.5496 23.64 39.6992 23.6242 38.8374C23.6084 37.9755 23.7625 37.119 24.0778 36.3167C24.3932 35.5144 24.8634 34.7821 25.4618 34.1617C26.0602 33.5412 26.775 33.0447 27.5653 32.7005C28.3557 32.3564 29.2061 32.1713 30.0679 32.1559C30.9298 32.1404 31.7863 32.295 32.5884 32.6106C33.3905 32.9263 34.1226 33.3969 34.7428 33.9956L42.4368 41.4149L60.0924 24.3902L60.0923 24.39C55.8316 20.0205 50.1328 17.3418 44.0499 16.8493C37.9669 16.3567 31.9114 18.0836 27.0032 21.7106C22.095 25.3375 18.6663 30.6192 17.3512 36.5787C16.0361 42.5381 16.9235 48.7723 19.8494 54.128C22.7753 59.4838 27.5417 63.5988 33.267 65.7121C38.9923 67.8253 45.2892 67.7938 50.9931 65.6233C56.6969 63.4528 61.4218 59.2903 64.294 53.9055C67.1661 48.5207 67.9911 42.278 66.6163 36.332L46.9927 55.2545Z" fill="#033F38"/>
<path d="M66.9373 22.9688C65.9173 22.9668 64.9368 23.3626 64.204 24.072L42.4368 45.0614L32.9206 35.8848C32.5487 35.5243 32.1094 35.2406 31.6277 35.0501C31.146 34.8596 30.6315 34.766 30.1136 34.7747C29.5957 34.7833 29.0847 34.8941 28.6096 35.1006C28.1346 35.3072 27.705 35.6054 27.3455 35.9782C26.9859 36.351 26.7034 36.7911 26.5142 37.2733C26.3251 37.7555 26.2329 38.2703 26.2429 38.7881C26.253 39.306 26.3652 39.8168 26.573 40.2912C26.7808 40.7657 27.0802 41.1945 27.454 41.553L39.7029 53.3639C40.4366 54.0724 41.4166 54.4685 42.4366 54.4688C43.4565 54.469 44.4367 54.0734 45.1708 53.3652L69.6699 29.7405C70.2348 29.1958 70.624 28.4946 70.7876 27.727C70.9512 26.9595 70.8817 26.1606 70.588 25.4328C70.2944 24.705 69.7899 24.0816 69.1394 23.6426C68.4889 23.2035 67.7221 22.9689 66.9373 22.9688Z" fill="#033F38"/>
</svg>
