<svg width="27" height="22" viewBox="0 0 27 22" fill="none" xmlns="http://www.w3.org/2000/svg">
<path d="M0 10.7038L10.0294 20.7331C10.1475 20.8711 10.2929 20.9832 10.4564 21.0623C10.6199 21.1414 10.798 21.1858 10.9795 21.1928C11.161 21.1998 11.342 21.1693 11.5111 21.103C11.6803 21.0367 11.8339 20.9362 11.9623 20.8078C12.0907 20.6794 12.1912 20.5258 12.2575 20.3566C12.3237 20.1875 12.3543 20.0065 12.3473 19.825C12.3403 19.6435 12.2959 19.4654 12.2167 19.3019C12.1376 19.1384 12.0256 18.993 11.8876 18.8749L5.16624 12.1271L24.935 12.1271C25.2846 12.1271 25.6198 11.9883 25.8669 11.7411C26.1141 11.494 26.2529 11.1588 26.2529 10.8092C26.2529 10.4597 26.1141 10.1245 25.8669 9.87731C25.6198 9.63015 25.2846 9.4913 24.935 9.4913L4.92902 9.4913L11.8876 2.53269C12.0256 2.41454 12.1376 2.26915 12.2167 2.10564C12.2959 1.94214 12.3403 1.76405 12.3473 1.58254C12.3543 1.40104 12.3237 1.22005 12.2575 1.05092C12.1912 0.881802 12.0907 0.728203 11.9623 0.599764C11.8339 0.471327 11.6803 0.370825 11.5111 0.304567C11.342 0.23831 11.161 0.207726 10.9795 0.214737C10.798 0.221746 10.6199 0.266201 10.4564 0.345306C10.2929 0.424414 10.1475 0.536463 10.0294 0.674425L0 10.7038Z" fill="#033F38"/>
</svg>
