<svg width="27" height="25" viewBox="0 0 27 25" fill="none" xmlns="http://www.w3.org/2000/svg">
<path d="M0.5 3.34375C0.5 2.55639 0.812778 1.80128 1.36953 1.24453C1.92628 0.687778 2.68139 0.375 3.46875 0.375H22.5312C23.3186 0.375 24.0737 0.687778 24.6305 1.24453C25.1872 1.80128 25.5 2.55639 25.5 3.34375V8.27813C25.2971 8.21784 25.0866 8.18732 24.875 8.1875H20.5C19.9198 8.1875 19.3634 8.41797 18.9532 8.8282C18.543 9.23844 18.3125 9.79484 18.3125 10.375V12.1481C17.981 12.1481 17.663 12.2798 17.4286 12.5142C17.1942 12.7487 17.0625 13.0666 17.0625 13.3981V17.875H3.46875C2.68139 17.875 1.92628 17.5622 1.36953 17.0055C0.812778 16.4487 0.5 15.6936 0.5 14.9062V3.34375ZM5.03125 21.625H18.6519L17.665 20.0625H5.03125C4.82405 20.0625 4.62534 20.1448 4.47882 20.2913C4.33231 20.4378 4.25 20.6365 4.25 20.8438C4.25 21.051 4.33231 21.2497 4.47882 21.3962C4.62534 21.5427 4.82405 21.625 5.03125 21.625ZM19.875 10.375V13.5H19.25C19.0842 13.5 18.9253 13.5658 18.8081 13.6831C18.6908 13.8003 18.625 13.9592 18.625 14.125V18.475C18.6248 18.5933 18.6582 18.7093 18.7212 18.8094L20.5 21.625V24.125C20.5 24.2908 20.5658 24.4497 20.6831 24.5669C20.8003 24.6842 20.9592 24.75 21.125 24.75H24.25C24.4158 24.75 24.5747 24.6842 24.6919 24.5669C24.8092 24.4497 24.875 24.2908 24.875 24.125V21.625L26.6538 18.8094C26.7168 18.7093 26.7502 18.5933 26.75 18.475V14.125C26.75 13.9592 26.6842 13.8003 26.5669 13.6831C26.4497 13.5658 26.2908 13.5 26.125 13.5H25.5V10.375C25.5 10.2092 25.4342 10.0503 25.3169 9.93306C25.1997 9.81585 25.0408 9.75 24.875 9.75H20.5C20.3342 9.75 20.1753 9.81585 20.0581 9.93306C19.9408 10.0503 19.875 10.2092 19.875 10.375ZM21.4375 11.3125H23.9375V13.5H21.4375V11.3125Z" fill="#033F38"/>
</svg>
