<svg width="393" height="493" viewBox="0 0 393 493" fill="none" xmlns="http://www.w3.org/2000/svg">
<path d="M16.801 0C7.34791 0.066407 0.059 9.4688 0 16.801V476.001C0 484.798 8.00391 492.802 16.801 492.802H375.201C383.998 492.802 392.002 484.798 392.002 476.001V117.601C392.002 113.199 390.209 108.82 387.104 105.703L286.304 4.903C283.186 1.7975 278.808 -0.00719948 274.406 0.00460052L16.801 0ZM33.602 33.602H257.602V117.602C257.602 126.399 265.606 134.403 274.403 134.403H358.403V459.203H33.603L33.602 33.602ZM291.202 57.227L334.776 100.801H291.202V57.227ZM78.402 190.407C69.1247 190.407 61.601 197.926 61.601 207.208C61.601 216.485 69.1244 224.009 78.402 224.009H313.602C322.879 224.009 330.403 216.486 330.403 207.208C330.403 197.931 322.884 190.407 313.602 190.407H78.402ZM78.402 280.009C69.1247 280.009 61.601 287.528 61.601 296.81C61.601 306.087 69.1244 313.611 78.402 313.611H313.602C322.879 313.611 330.403 306.088 330.403 296.81C330.403 287.532 322.884 280.009 313.602 280.009H78.402ZM78.402 369.611C69.1247 369.611 61.601 377.131 61.601 386.412C61.601 395.689 69.1244 403.213 78.402 403.213H313.602C322.879 403.213 330.403 395.69 330.403 386.412C330.403 377.135 322.884 369.611 313.602 369.611H78.402Z" fill="#FCB03F"/>
</svg>
