<svg width="30" height="30" viewBox="0 0 30 30" fill="none" xmlns="http://www.w3.org/2000/svg">
<rect x="1" y="1" width="28" height="28" rx="14" stroke="#033F38" stroke-width="2"/>
<path d="M18.281 6.56254H15.7798C12.5941 6.53066 12.1873 8.50223 12.1873 10.636V12.1875H10.781C10.7175 12.179 10.6528 12.1853 10.5921 12.2059C10.5313 12.2264 10.4761 12.2607 10.4308 12.3061C10.3854 12.3514 10.3512 12.4066 10.3306 12.4673C10.3101 12.5281 10.3038 12.5927 10.3123 12.6563V15.4688C10.3038 15.5323 10.3101 15.597 10.3306 15.6577C10.3512 15.7185 10.3854 15.7737 10.4308 15.819C10.4761 15.8644 10.5313 15.8986 10.5921 15.9192C10.6528 15.9398 10.7175 15.946 10.781 15.9375H12.1873V22.9688C12.1795 23.0325 12.1863 23.0971 12.2073 23.1577C12.2283 23.2183 12.2628 23.2734 12.3083 23.3186C12.3538 23.3638 12.409 23.398 12.4698 23.4187C12.5305 23.4393 12.5952 23.4457 12.6588 23.4375H15.5229C15.7995 23.4694 16.0235 23.2454 15.9354 22.9688L15.9373 15.9375H18.281C18.3446 15.946 18.4092 15.9398 18.47 15.9192C18.5307 15.8986 18.5859 15.8644 18.6312 15.819C18.6766 15.7737 18.7109 15.7185 18.7314 15.6577C18.752 15.597 18.7583 15.5323 18.7498 15.4688V12.6563C18.7583 12.5927 18.752 12.5281 18.7314 12.4673C18.7109 12.4066 18.6766 12.3514 18.6312 12.3061C18.5859 12.2607 18.5307 12.2264 18.47 12.2059C18.4092 12.1853 18.3446 12.179 18.281 12.1875H15.9345L15.9373 10.7813C16.0282 10.1822 16.0282 10.2797 16.5841 10.3125H18.2613C18.3916 10.2835 18.5304 10.2994 18.6279 10.2047C18.7254 10.11 18.7816 9.98066 18.7488 9.84379V7.03129C18.7575 6.96778 18.7514 6.90313 18.7309 6.84238C18.7105 6.78163 18.6763 6.72642 18.631 6.68105C18.5857 6.63568 18.5306 6.60138 18.4699 6.58083C18.4092 6.56027 18.3445 6.55401 18.281 6.56254V6.56254ZM17.7795 9.32254L16.6038 9.27754C15.1479 9.27754 15.026 10.0679 15.026 10.8769L15.0223 12.6544C15.0221 12.7202 15.035 12.7854 15.0601 12.8463C15.0852 12.9071 15.1221 12.9624 15.1686 13.009C15.2151 13.0556 15.2703 13.0926 15.3311 13.1178C15.3919 13.143 15.4571 13.156 15.5229 13.156H17.8123V14.9672H15.5248C15.3919 14.9672 15.2645 15.0199 15.1704 15.1138C15.0764 15.2077 15.0235 15.335 15.0232 15.4679L15.0223 22.5H13.1248V15.4688C13.1248 15.1922 12.9363 14.9682 12.6588 14.9682H11.2498V13.1569H12.6588C12.7246 13.157 12.7898 13.1441 12.8506 13.1191C12.9114 13.094 12.9666 13.0571 13.0132 13.0107C13.107 12.916 13.1238 12.7885 13.1238 12.6553V10.635C13.1238 8.53316 13.5485 7.53191 15.7788 7.53191H17.7785V9.32254H17.7795Z" fill="#033F38"/>
</svg>
