<svg width="30" height="30" viewBox="0 0 30 30" fill="none" xmlns="http://www.w3.org/2000/svg">
<path d="M19.6819 19.38L19.3284 19.0264L19.3232 19.0316L19.3182 19.0369L19.6819 19.38ZM10.1959 19.344L10.5495 18.9904L10.5495 18.9904L10.1959 19.344ZM10.1959 9.768L10.5495 10.1216L10.5495 10.1216L10.1959 9.768ZM19.6999 9.75L20.0535 10.1036L20.3856 9.77141L20.0749 9.41919L19.6999 9.75ZM18.5119 10.938L18.1263 11.2562L18.4764 11.6806L18.8655 11.2916L18.5119 10.938ZM16.9639 9.822L16.7616 10.2794L16.7722 10.2838L16.9639 9.822ZM11.3839 10.866L11.0304 10.5124L11.026 10.5168L11.3839 10.866ZM11.3839 18.246L11.026 18.5952L11.0304 18.5996L11.3839 18.246ZM18.1519 18.624L17.8292 18.2421L17.8292 18.2421L18.1519 18.624ZM19.6279 15.654L20.1252 15.7061L20.1831 15.154H19.6279V15.654ZM14.9479 15.654H14.4479V16.154H14.9479V15.654ZM14.9479 14.106V13.606H14.4479V14.106H14.9479ZM21.1939 14.106L21.6862 14.0181L21.6126 13.606H21.1939V14.106ZM20.7839 15.078C20.7839 16.7727 20.2849 18.0699 19.3284 19.0264L20.0355 19.7336C21.2149 18.5541 21.7839 16.9833 21.7839 15.078H20.7839ZM19.3182 19.0369C18.2244 20.1964 16.7843 20.788 14.9479 20.788V21.788C17.0236 21.788 18.7395 21.1076 20.0456 19.7231L19.3182 19.0369ZM14.9479 20.788C13.2054 20.788 11.7495 20.1905 10.5495 18.9904L9.84238 19.6976C11.2344 21.0895 12.9465 21.788 14.9479 21.788V20.788ZM10.5495 18.9904C9.35081 17.7918 8.75194 16.3245 8.75194 14.556H7.75194C7.75194 16.5795 8.44907 18.3042 9.84238 19.6976L10.5495 18.9904ZM8.75194 14.556C8.75194 12.7875 9.35081 11.3202 10.5495 10.1216L9.84238 9.41445C8.44907 10.8078 7.75194 12.5325 7.75194 14.556H8.75194ZM10.5495 10.1216C11.7495 8.92154 13.2054 8.324 14.9479 8.324V7.324C12.9465 7.324 11.2344 8.02245 9.84238 9.41445L10.5495 10.1216ZM14.9479 8.324C15.8354 8.324 16.6661 8.48098 17.4442 8.79224L17.8156 7.86376C16.9138 7.50302 15.9565 7.324 14.9479 7.324V8.324ZM17.4442 8.79224C18.2196 9.10238 18.8422 9.53361 19.325 10.0808L20.0749 9.41919C19.4777 8.74239 18.7203 8.22562 17.8156 7.86376L17.4442 8.79224ZM19.3464 9.39645L18.1584 10.5844L18.8655 11.2916L20.0535 10.1036L19.3464 9.39645ZM18.8976 10.6198C18.4443 10.0703 17.8589 9.65211 17.1556 9.3602L16.7722 10.2838C17.341 10.5199 17.7876 10.8457 18.1263 11.2562L18.8976 10.6198ZM17.1662 9.36473C16.475 9.05901 15.7337 8.908 14.9479 8.908V9.908C15.6022 9.908 16.2049 10.033 16.7617 10.2793L17.1662 9.36473ZM14.9479 8.908C13.4145 8.908 12.0984 9.44445 11.0304 10.5124L11.7375 11.2196C12.6135 10.3435 13.6734 9.908 14.9479 9.908V8.908ZM11.026 10.5168C9.9678 11.6015 9.44394 12.9601 9.44394 14.556H10.4439C10.4439 13.1999 10.8801 12.0985 11.7418 11.2152L11.026 10.5168ZM9.44394 14.556C9.44394 16.1519 9.9678 17.5105 11.026 18.5952L11.7418 17.8968C10.8801 17.0135 10.4439 15.9121 10.4439 14.556H9.44394ZM11.0304 18.5996C12.0984 19.6675 13.4145 20.204 14.9479 20.204V19.204C13.6734 19.204 12.6135 18.7685 11.7375 17.8924L11.0304 18.5996ZM14.9479 20.204C16.3312 20.204 17.519 19.8135 18.4747 19.0059L17.8292 18.2421C17.0809 18.8745 16.1327 19.204 14.9479 19.204V20.204ZM18.4747 19.0059C19.4388 18.1911 19.9817 17.0756 20.1252 15.7061L19.1307 15.6019C19.0101 16.7524 18.5691 17.6169 17.8292 18.2421L18.4747 19.0059ZM19.6279 15.154H14.9479V16.154H19.6279V15.154ZM15.4479 15.654V14.106H14.4479V15.654H15.4479ZM14.9479 14.606H21.1939V13.606H14.9479V14.606ZM20.7017 14.1939C20.757 14.5036 20.7839 14.7981 20.7839 15.078H21.7839C21.7839 14.7339 21.7509 14.3804 21.6862 14.0181L20.7017 14.1939Z" fill="#033F38"/>
<rect x="1" y="1" width="28" height="28" rx="14" stroke="#033F38" stroke-width="2"/>
</svg>
