<svg width="33" height="37" viewBox="0 0 33 37" fill="none" xmlns="http://www.w3.org/2000/svg">
<path fill-rule="evenodd" clip-rule="evenodd" d="M0.194336 3.07253C0.194336 2.27519 0.483092 1.51051 0.997082 0.946709C1.51107 0.382907 2.20819 0.0661661 2.93508 0.0661661H30.256C30.6163 0.0655208 30.9731 0.142818 31.306 0.293633C31.639 0.444448 31.9415 0.665819 32.1964 0.945071C32.4512 1.22432 32.6534 1.55597 32.7912 1.92103C32.9291 2.28609 32.9999 2.67739 32.9998 3.07253V33.0413C33.0001 33.4365 32.9295 33.8279 32.7918 34.1931C32.6542 34.5584 32.4522 34.8903 32.1975 35.1698C31.9428 35.4493 31.6404 35.671 31.3075 35.8222C30.9746 35.9734 30.6178 36.0511 30.2575 36.0509H2.93508C2.57503 36.0509 2.21852 35.9731 1.8859 35.8219C1.55328 35.6707 1.25108 35.4491 0.996554 35.1698C0.742033 34.8904 0.540182 34.5588 0.402535 34.1939C0.264887 33.829 0.19414 33.4378 0.194336 33.0429V3.07253ZM13.1793 13.7862H17.6215V16.2331C18.2627 14.8265 19.9029 13.5604 22.3678 13.5604C27.0933 13.5604 28.2131 16.3623 28.2131 21.5033V31.0261H23.431V22.6744C23.431 19.7465 22.7898 18.0945 21.1615 18.0945C18.9024 18.0945 17.9629 19.8758 17.9629 22.6744V31.0261H13.1793V13.7862ZM4.97796 30.802H9.76159V13.5604H4.97796V30.8004V30.802ZM10.446 7.93701C10.455 8.38628 10.3822 8.83301 10.2317 9.25097C10.0812 9.66893 9.85606 10.0497 9.56958 10.3709C9.28309 10.6922 8.941 10.9474 8.56338 11.1217C8.18575 11.2959 7.7802 11.3857 7.37052 11.3857C6.96084 11.3857 6.55529 11.2959 6.17766 11.1217C5.80004 10.9474 5.45795 10.6922 5.17147 10.3709C4.88499 10.0497 4.65989 9.66893 4.50938 9.25097C4.35888 8.83301 4.28599 8.38628 4.29501 7.93701C4.31272 7.05515 4.64452 6.21594 5.21936 5.59912C5.7942 4.9823 6.56638 4.63691 7.37052 4.63691C8.17467 4.63691 8.94684 4.9823 9.52168 5.59912C10.0965 6.21594 10.4283 7.05515 10.446 7.93701Z" fill="white"/>
</svg>
