<svg width="26" height="18" viewBox="0 0 26 18" fill="none" xmlns="http://www.w3.org/2000/svg">
<path d="M11.5944 0.656252C11.7532 0.732768 11.8872 0.852522 11.9811 1.00177C12.075 1.15101 12.1248 1.3237 12.125 1.5V16.5C12.1247 16.6764 12.0747 16.8492 11.9807 16.9984C11.8867 17.1477 11.7524 17.2674 11.5934 17.3437C11.4344 17.4201 11.257 17.4501 11.0817 17.4302C10.9065 17.4103 10.7403 17.3413 10.6025 17.2313L6.17187 13.6875H1.8125C1.56386 13.6875 1.3254 13.5887 1.14959 13.4129C0.973772 13.2371 0.875 12.9986 0.875 12.75V5.25C0.875 5.00136 0.973772 4.76291 1.14959 4.58709C1.3254 4.41127 1.56386 4.3125 1.8125 4.3125H6.17187L10.6025 0.768752C10.7404 0.658479 10.9067 0.589414 11.0822 0.569511C11.2577 0.549607 11.4352 0.579676 11.5944 0.656252ZM24.9762 4.58625C25.0636 4.67334 25.1328 4.77679 25.1801 4.89069C25.2273 5.00459 25.2517 5.12669 25.2517 5.25C25.2517 5.37332 25.2273 5.49542 25.1801 5.60932C25.1328 5.72321 25.0636 5.82667 24.9762 5.91375L21.8881 9L24.9762 12.0863C25.1523 12.2623 25.2512 12.501 25.2512 12.75C25.2512 12.999 25.1523 13.2377 24.9762 13.4138C24.8002 13.5898 24.5615 13.6887 24.3125 13.6887C24.0635 13.6887 23.8248 13.5898 23.6487 13.4138L20.5625 10.3256L17.4762 13.4138C17.3002 13.5898 17.0615 13.6887 16.8125 13.6887C16.5635 13.6887 16.3248 13.5898 16.1487 13.4138C15.9727 13.2377 15.8738 12.999 15.8738 12.75C15.8738 12.501 15.9727 12.2623 16.1487 12.0863L19.2369 9L16.1487 5.91375C16.0616 5.82659 15.9924 5.72311 15.9453 5.60922C15.8981 5.49534 15.8738 5.37327 15.8738 5.25C15.8738 5.12673 15.8981 5.00467 15.9453 4.89078C15.9924 4.7769 16.0616 4.67342 16.1487 4.58625C16.3248 4.41021 16.5635 4.31132 16.8125 4.31132C16.9358 4.31132 17.0578 4.3356 17.1717 4.38277C17.2856 4.42994 17.3891 4.49909 17.4762 4.58625L20.5625 7.67438L23.6487 4.58625C23.7358 4.49895 23.8393 4.42968 23.9532 4.38242C24.0671 4.33515 24.1892 4.31083 24.3125 4.31083C24.4358 4.31083 24.5579 4.33515 24.6718 4.38242C24.7857 4.42968 24.8892 4.49895 24.9762 4.58625Z" fill="#033F38"/>
</svg>
