<svg width="95" height="95" viewBox="0 0 95 95" fill="none" xmlns="http://www.w3.org/2000/svg">
<path d="M39.4802 46.6949H16.121C15.7102 42.6098 12.2928 39.3988 8.10117 39.3988C3.63389 39.3988 0 43.0327 0 47.5C0 51.9673 3.63389 55.6012 8.10117 55.6012C12.2928 55.6012 15.7102 52.3902 16.121 48.3051H39.4802C39.6436 49.9303 40.277 51.403 41.2594 52.6021L32.9027 60.9588C31.5053 59.8141 29.7438 59.0983 27.8006 59.0983C23.3333 59.0983 19.6994 62.7321 19.6994 67.1994C19.6994 71.6667 23.3333 75.3006 27.8006 75.3006C32.2679 75.3006 35.9017 71.6667 35.9017 67.1994C35.9017 65.2562 35.1859 63.4947 34.0412 62.0973L42.3979 53.7406C43.597 54.723 45.0697 55.3564 46.6949 55.5198V78.879C42.6098 79.2898 39.3988 82.7072 39.3988 86.8988C39.3988 91.3661 43.0327 95 47.5 95C51.9673 95 55.6012 91.3661 55.6012 86.8988C55.6012 82.7072 52.3902 79.2898 48.3051 78.879V55.5198C49.9303 55.3564 51.403 54.723 52.6021 53.7406L60.9588 62.0973C59.8141 63.4947 59.0983 65.2562 59.0983 67.1994C59.0983 71.6667 62.7321 75.3006 67.1994 75.3006C71.6667 75.3006 75.3006 71.6667 75.3006 67.1994C75.3006 62.7321 71.6667 59.0983 67.1994 59.0983C65.2562 59.0983 63.4947 59.8141 62.0973 60.9588L53.7406 52.6021C54.723 51.403 55.3564 49.9303 55.5198 48.3051H78.879C79.2898 52.3902 82.7072 55.6012 86.8988 55.6012C91.3661 55.6012 95 51.9673 95 47.5C95 43.0327 91.3661 39.3988 86.8988 39.3988C82.7072 39.3988 79.2898 42.6098 78.879 46.6949H55.5198C55.3564 45.0697 54.723 43.597 53.7406 42.3979L62.0973 34.0412C63.4947 35.1859 65.2562 35.9017 67.1994 35.9017C71.6667 35.9017 75.3006 32.2679 75.3006 27.8006C75.3006 23.3333 71.6667 19.6994 67.1994 19.6994C62.7321 19.6994 59.0983 23.3333 59.0983 27.8006C59.0983 29.7438 59.8141 31.5053 60.9588 32.9027L52.6021 41.2594C51.403 40.277 49.9303 39.6436 48.3051 39.4802V16.121C52.3902 15.7102 55.6012 12.2928 55.6012 8.10117C55.6012 3.63389 51.9673 0 47.5 0C43.0327 0 39.3988 3.63389 39.3988 8.10117C39.3988 12.2928 42.6098 15.7102 46.6949 16.121V39.4802C45.0697 39.6436 43.597 40.277 42.3979 41.2594L34.0412 32.9027C35.1859 31.5053 35.9017 29.7438 35.9017 27.8006C35.9017 23.3333 32.2679 19.6994 27.8006 19.6994C23.3333 19.6994 19.6994 23.3333 19.6994 27.8006C19.6994 32.2679 23.3333 35.9017 27.8006 35.9017C29.7438 35.9017 31.5053 35.1859 32.9027 34.0412L41.2594 42.3979C40.277 43.597 39.6436 45.0697 39.4802 46.6949ZM8.10117 53.991C4.52231 53.991 1.61017 51.0789 1.61017 47.5C1.61017 43.9211 4.52231 41.009 8.10117 41.009C11.68 41.009 14.5922 43.9211 14.5922 47.5C14.5922 51.0789 11.68 53.991 8.10117 53.991ZM27.8006 73.6904C24.2217 73.6904 21.3096 70.7783 21.3096 67.1994C21.3096 63.6206 24.2217 60.7084 27.8006 60.7084C29.5536 60.7084 31.1407 61.4138 32.3099 62.5473C32.3312 62.5749 32.3416 62.6077 32.3669 62.6331C32.3923 62.6584 32.4251 62.6688 32.4527 62.6901C33.5862 63.8593 34.2916 65.4464 34.2916 67.1994C34.2916 70.7783 31.3794 73.6904 27.8006 73.6904ZM53.991 86.8988C53.991 90.4777 51.0789 93.3898 47.5 93.3898C43.9211 93.3898 41.009 90.4777 41.009 86.8988C41.009 83.32 43.9211 80.4078 47.5 80.4078C51.0789 80.4078 53.991 83.32 53.991 86.8988ZM73.6904 67.1994C73.6904 70.7783 70.7783 73.6904 67.1994 73.6904C63.6206 73.6904 60.7084 70.7783 60.7084 67.1994C60.7084 63.6206 63.6206 60.7084 67.1994 60.7084C70.7783 60.7084 73.6904 63.6206 73.6904 67.1994ZM86.8988 41.009C90.4777 41.009 93.3898 43.9211 93.3898 47.5C93.3898 51.0789 90.4777 53.991 86.8988 53.991C83.32 53.991 80.4078 51.0789 80.4078 47.5C80.4078 43.9211 83.32 41.009 86.8988 41.009ZM67.1994 21.3096C70.7783 21.3096 73.6904 24.2217 73.6904 27.8006C73.6904 31.3794 70.7783 34.2916 67.1994 34.2916C65.4464 34.2916 63.8593 33.5862 62.6901 32.4527C62.6688 32.4251 62.6584 32.3923 62.6331 32.3669C62.6077 32.3416 62.5749 32.3312 62.5473 32.3099C61.4138 31.1407 60.7084 29.5536 60.7084 27.8006C60.7084 24.2217 63.6206 21.3096 67.1994 21.3096ZM41.009 8.10117C41.009 4.52231 43.9211 1.61017 47.5 1.61017C51.0789 1.61017 53.991 4.52231 53.991 8.10117C53.991 11.68 51.0789 14.5922 47.5 14.5922C43.9211 14.5922 41.009 11.68 41.009 8.10117ZM47.5 41.009C51.0789 41.009 53.991 43.9211 53.991 47.5C53.991 51.0789 51.0789 53.991 47.5 53.991C43.9211 53.991 41.009 51.0789 41.009 47.5C41.009 43.9211 43.9211 41.009 47.5 41.009ZM21.3096 27.8006C21.3096 24.2217 24.2217 21.3096 27.8006 21.3096C31.3794 21.3096 34.2916 24.2217 34.2916 27.8006C34.2916 31.3794 31.3794 34.2916 27.8006 34.2916C24.2217 34.2916 21.3096 31.3794 21.3096 27.8006Z" fill="#033F38"/>
</svg>
