<svg width="30" height="30" viewBox="0 0 30 30" fill="none" xmlns="http://www.w3.org/2000/svg">
<rect x="1" y="1" width="28" height="28" rx="14" stroke="#033F38" stroke-width="2"/>
<path d="M23.2449 10.3556C23.3489 10.1632 23.4346 9.96133 23.5008 9.75283C23.5315 9.65611 23.5321 9.55237 23.5026 9.45529C23.4731 9.35822 23.4148 9.27238 23.3355 9.20911C23.2562 9.14584 23.1595 9.10811 23.0583 9.1009C22.9571 9.0937 22.8561 9.11736 22.7686 9.16876C22.2883 9.45415 21.7682 9.66677 21.2255 9.7997C20.5667 9.20512 19.7111 8.87549 18.8236 8.87439C18.3415 8.87476 17.8644 8.97248 17.4209 9.1617C16.9775 9.35091 16.5768 9.62772 16.2429 9.97554C15.909 10.3233 15.6488 10.735 15.4778 11.1858C15.3069 11.6366 15.2287 12.1173 15.248 12.5991C13.1396 12.3337 11.2143 11.2667 9.87145 9.6197C9.82 9.5573 9.75425 9.50825 9.67978 9.4767C9.60532 9.44515 9.52434 9.43203 9.44372 9.43848C9.3631 9.44492 9.28523 9.47072 9.21672 9.5137C9.14821 9.55667 9.09109 9.61555 9.0502 9.68533C8.74272 10.2131 8.5756 10.8108 8.56476 11.4215C8.55393 12.0322 8.69976 12.6354 8.98833 13.1738C8.91755 13.1857 8.84956 13.2105 8.7877 13.2469C8.7119 13.2952 8.64949 13.3619 8.60624 13.4407C8.56298 13.5195 8.54027 13.6079 8.5402 13.6978C8.5402 14.7619 9.01364 15.7388 9.77676 16.4025L9.74395 16.4353C9.68634 16.5005 9.6467 16.5796 9.62895 16.6647C9.61119 16.7499 9.61593 16.8382 9.6427 16.921C9.80183 17.4174 10.0675 17.873 10.4212 18.256C10.7749 18.639 11.208 18.9401 11.6902 19.1381C10.6998 19.6213 9.59147 19.8097 8.49708 19.681C8.38458 19.6695 8.27146 19.6957 8.17544 19.7554C8.07941 19.8151 8.00591 19.905 7.96645 20.011C7.92855 20.1177 7.92784 20.2341 7.96443 20.3413C8.00102 20.4486 8.07276 20.5403 8.16801 20.6016C9.65584 21.5565 11.3867 22.0638 13.1546 22.0631C18.9483 22.0631 22.4115 17.3569 22.4115 12.8072L22.4105 12.6535C22.972 12.2151 23.4597 11.6897 23.8552 11.0972C23.9151 11.0076 23.9445 10.9012 23.9392 10.7935C23.9338 10.6859 23.894 10.5829 23.8255 10.4997C23.757 10.4165 23.6636 10.3576 23.559 10.3316C23.4545 10.3057 23.3443 10.3141 23.2449 10.3556ZM21.6089 12.001C21.5409 12.0499 21.4862 12.1151 21.4499 12.1906C21.4135 12.266 21.3967 12.3495 21.4008 12.4331C21.4065 12.5569 21.4093 12.6825 21.4093 12.8063C21.4093 16.8638 18.3221 21.061 13.1555 21.061C12.234 21.0614 11.3191 20.9067 10.449 20.6035C11.4911 20.4037 12.47 19.9569 13.3036 19.3003C13.3848 19.2363 13.4442 19.1489 13.4737 19.0498C13.5033 18.9508 13.5015 18.8451 13.4687 18.7471C13.4358 18.6491 13.3735 18.5637 13.2903 18.5025C13.2071 18.4412 13.1069 18.4072 13.0036 18.405C12.5994 18.3973 12.2027 18.2947 11.8454 18.1055C11.4881 17.9162 11.1803 17.6457 10.9468 17.3156C11.1839 17.2997 11.4165 17.2603 11.6424 17.1994C11.7517 17.1701 11.8479 17.1047 11.9153 17.0137C11.9827 16.9227 12.0172 16.8116 12.0133 16.6985C12.0094 16.5853 11.9672 16.4769 11.8937 16.3908C11.8202 16.3047 11.7197 16.246 11.6086 16.2244C11.1521 16.1315 10.7294 15.9163 10.3857 15.6017C10.0421 15.2871 9.79045 14.885 9.6577 14.4385C9.90708 14.5013 10.163 14.5378 10.419 14.5463C10.6393 14.5453 10.8436 14.4103 10.9121 14.1985C10.9805 13.9866 10.8999 13.7531 10.7133 13.6294C10.2722 13.3355 9.93256 12.9126 9.74077 12.4184C9.54899 11.9243 9.51441 11.383 9.64176 10.8685C11.2702 12.5394 13.4692 13.5344 15.7993 13.6547C15.9643 13.6556 16.1086 13.5966 16.209 13.4756C16.3093 13.3547 16.3477 13.1944 16.3121 13.0406C16.1839 12.4885 16.2412 11.9094 16.4753 11.3931C16.7093 10.8768 17.107 10.452 17.6068 10.1845C18.1066 9.91698 18.6806 9.82166 19.24 9.91327C19.7994 10.0049 20.3131 10.2783 20.7014 10.6913C20.7597 10.7534 20.8327 10.7996 20.9137 10.8257C20.9947 10.8518 21.0811 10.8568 21.1646 10.8403C21.3193 10.8094 21.4721 10.7738 21.623 10.7325C21.555 10.7835 21.4842 10.8307 21.4111 10.8741C21.3139 10.9336 21.2399 11.0245 21.2013 11.1318C21.1626 11.239 21.1617 11.3563 21.1986 11.4641C21.2355 11.572 21.308 11.6641 21.4043 11.7252C21.5005 11.7863 21.6147 11.8128 21.728 11.8003L21.8986 11.7788C21.8047 11.8562 21.7081 11.9303 21.6089 12.001Z" fill="#033F38"/>
</svg>
