<svg width="45" height="40" viewBox="0 0 45 40" fill="none" xmlns="http://www.w3.org/2000/svg">
<path d="M44.059 4.66033C42.4388 5.44787 40.6982 5.97999 38.8684 6.22051C40.7564 4.98129 42.1689 3.03092 42.8424 0.733299C41.0685 1.88904 39.1272 2.70255 37.1026 3.13848C35.7412 1.54396 33.9379 0.48709 31.9728 0.131949C30.0077 -0.223191 27.9907 0.143267 26.2348 1.17443C24.479 2.20559 23.0827 3.84377 22.2627 5.83462C21.4426 7.82547 21.2447 10.0576 21.6996 12.1845C18.1054 11.9865 14.5892 10.9618 11.3794 9.17676C8.16957 7.39172 5.33777 4.8863 3.06779 1.82308C2.29163 3.29173 1.84533 4.99451 1.84533 6.80797C1.84447 8.4405 2.21097 10.048 2.91232 11.4879C3.61368 12.9278 4.6282 14.1555 5.86587 15.0622C4.4305 15.0121 3.0268 14.5867 1.7716 13.8213V13.949C1.77145 16.2387 2.49349 18.4579 3.81521 20.2301C5.13692 22.0023 6.97689 23.2184 9.02292 23.6719C7.69138 24.0672 6.29536 24.1254 4.94029 23.8422C5.51756 25.8123 6.64203 27.5351 8.15627 28.7694C9.67051 30.0037 11.4987 30.6877 13.385 30.7256C10.183 33.4829 6.22851 34.9785 2.15774 34.9719C1.43665 34.9722 0.71616 34.926 0 34.8336C4.13206 37.7479 8.94208 39.2945 13.8546 39.2885C30.4839 39.2885 39.5747 24.1806 39.5747 11.0777C39.5747 10.652 39.565 10.222 39.5476 9.79634C41.3158 8.39363 42.8422 6.65662 44.0551 4.66672L44.059 4.66033Z" fill="white"/>
</svg>
