<svg width="95" height="84" viewBox="0 0 95 84" fill="none" xmlns="http://www.w3.org/2000/svg">
<path d="M47.4986 73.5708C30.0114 73.5708 15.7874 59.3437 15.7874 41.8626C15.7874 40.2959 15.9419 38.757 16.1613 37.2398C16.5074 37.2398 16.8999 37.2398 17.2058 37.2398H20.1414C23.1389 37.2398 24.3688 35.1107 22.867 32.5118L21.3991 29.9748C19.9004 27.376 17.4437 23.1239 15.9481 20.5282L14.4803 17.985C12.9846 15.3862 10.528 15.3862 9.02614 17.985L7.56141 20.5282C6.06268 23.1239 3.6091 27.376 2.10728 29.9748L0.639458 32.5118C-0.859269 35.1107 0.367524 37.2398 3.36807 37.2398H5.89891C5.73204 38.7632 5.64242 40.3021 5.64242 41.8626C5.64242 64.943 24.4244 83.7188 47.5017 83.7188C53.8674 83.7188 59.9798 82.3283 65.6656 79.5811L61.256 70.4435C56.9514 72.517 52.3254 73.5708 47.4986 73.5708Z" fill="#FCB03F"/>
<path d="M91.632 46.4822H89.1012C89.2681 44.9556 89.3577 43.4167 89.3577 41.8624C89.3577 18.7789 70.5788 0 47.4984 0C41.1389 0 35.0296 1.39366 29.3438 4.13772L33.7534 13.2753C38.0518 11.2018 42.6778 10.1481 47.4984 10.1481C64.9856 10.1481 79.2096 24.3752 79.2096 41.8624C79.2096 43.426 79.0582 44.9618 78.8357 46.4822C78.4896 46.4822 78.0941 46.4822 77.7881 46.4822H74.8525C71.852 46.4822 70.6252 48.6082 72.127 51.207L73.5948 53.744C75.0966 56.3428 77.5533 60.5949 79.052 63.1906L80.5198 65.7307C82.0155 68.3296 84.4722 68.3296 85.974 65.7307L87.4418 63.1906C88.9405 60.5949 91.3941 56.3428 92.8959 53.744L94.3637 51.207C95.8563 48.6113 94.6295 46.4822 91.632 46.4822Z" fill="#033F38"/>
</svg>
