<svg width="28" height="20" viewBox="0 0 28 20" fill="none" xmlns="http://www.w3.org/2000/svg">
<path d="M20.1813 13.1787C18.5348 11.7461 16.3845 10.8789 14.029 10.8789C11.6735 10.8789 9.52313 11.7461 7.87371 13.1816C7.82817 13.2227 7.80028 13.2798 7.79591 13.341C7.79154 13.4022 7.81103 13.4626 7.85028 13.5098L8.90496 14.7666C8.98993 14.8662 9.13934 14.8779 9.23895 14.793C10.5163 13.668 12.1921 12.9883 14.029 12.9883C15.8659 12.9883 17.5417 13.668 18.819 14.79C18.9186 14.875 19.0681 14.8633 19.153 14.7637L20.2077 13.5068C20.2897 13.4102 20.278 13.2637 20.1813 13.1787ZM23.6208 9.07422C21.0222 6.90918 17.6794 5.60547 14.029 5.60547C10.3786 5.60547 7.03582 6.90918 4.43426 9.07422C4.38667 9.11436 4.35688 9.17169 4.35139 9.23371C4.3459 9.29573 4.36516 9.3574 4.40496 9.40527L5.45965 10.6621C5.54168 10.7617 5.6911 10.7734 5.78778 10.6914C8.02313 8.83398 10.8972 7.71484 14.029 7.71484C17.1608 7.71484 20.0348 8.83398 22.2673 10.6914C22.3669 10.7734 22.5134 10.7617 22.5954 10.6621L23.6501 9.40527C23.7321 9.30566 23.7204 9.15625 23.6208 9.07422ZM27.0397 5.00195C23.4831 2.08398 18.9304 0.332031 13.9704 0.332031C9.04266 0.332031 4.51922 2.06055 0.971371 4.94336C0.946996 4.96294 0.926786 4.9872 0.911931 5.01472C0.897076 5.04223 0.887876 5.07244 0.884873 5.10356C0.88187 5.13468 0.885124 5.16609 0.894445 5.19594C0.903765 5.22578 0.918963 5.25346 0.939144 5.27734L1.99383 6.53418C2.07586 6.63086 2.22235 6.64551 2.31903 6.56641C5.5036 3.98535 9.55536 2.44141 13.9704 2.44141C18.4177 2.44141 22.4958 4.00879 25.6891 6.62207C25.7888 6.7041 25.9352 6.68945 26.0173 6.58984L27.072 5.33301C27.1569 5.2334 27.1423 5.08398 27.0397 5.00195ZM12.1247 17.793C12.1247 18.2902 12.3222 18.7672 12.6739 19.1188C13.0255 19.4704 13.5024 19.668 13.9997 19.668C14.497 19.668 14.9739 19.4704 15.3255 19.1188C15.6771 18.7672 15.8747 18.2902 15.8747 17.793C15.8747 17.2957 15.6771 16.8188 15.3255 16.4671C14.9739 16.1155 14.497 15.918 13.9997 15.918C13.5024 15.918 13.0255 16.1155 12.6739 16.4671C12.3222 16.8188 12.1247 17.2957 12.1247 17.793Z" fill="#033F38"/>
</svg>
